<?xml version="1.0" encoding="UTF-8"?>
<svg version="1.1" xmlns="http://www.w3.org/2000/svg" width="512" height="512">
<path d="M0 0 C0.90143738 -0.01283524 1.80287476 -0.02567047 2.73162842 -0.03889465 C3.70867737 -0.04628159 4.68572632 -0.05366852 5.69238281 -0.0612793 C6.69634094 -0.06935104 7.70029907 -0.07742279 8.73468018 -0.08573914 C10.86314158 -0.09958646 12.99162525 -0.11030571 15.12011719 -0.11816406 C18.36859529 -0.13535562 21.61605019 -0.17923397 24.86425781 -0.22338867 C26.93195866 -0.23351739 28.99966816 -0.24203293 31.06738281 -0.2487793 C32.03633484 -0.26628738 33.00528687 -0.28379547 34.00360107 -0.30183411 C39.90358926 -0.28295014 43.09950961 0.3494128 47.64550781 4.17700195 C48.23332031 4.65008789 48.82113281 5.12317383 49.42675781 5.6105957 C51.07717275 7.73180208 51.52770175 9.62485843 52.14550781 12.23950195 C52.52835937 13.81924805 52.52835937 13.81924805 52.91894531 15.4309082 C53.46752579 18.25934194 53.8737448 20.97429114 54.18457031 23.8293457 C54.77394924 32.22618412 54.77394924 32.22618412 58.66113281 39.28637695 C62.12778664 40.96230894 64.29145901 41.64113925 68.0065918 40.36767578 C70.6435001 39.17790783 72.84914604 37.82571601 75.21972656 36.1730957 C76.05181641 35.5975293 76.88390625 35.02196289 77.74121094 34.42895508 C79.02415039 33.53080078 79.02415039 33.53080078 80.33300781 32.61450195 C82.04454896 31.42469454 83.75675595 30.23584419 85.46972656 29.0480957 C86.22342529 28.52143311 86.97712402 27.99477051 87.75366211 27.45214844 C90.81638655 25.38780339 92.72210895 24.99379102 96.39550781 24.92700195 C97.65621094 24.88833008 97.65621094 24.88833008 98.94238281 24.84887695 C105.59702594 25.656666 109.78993427 29.87552413 114.28613281 34.41918945 C115.19851715 35.32726852 115.19851715 35.32726852 116.1293335 36.25369263 C117.40696864 37.52929509 118.68085844 38.80865875 119.95117188 40.09155273 C121.89292883 42.0494016 123.85020734 43.9906969 125.80957031 45.9309082 C127.05272106 47.17604098 128.29494109 48.42210384 129.53613281 49.66918945 C130.4111142 50.5350618 130.4111142 50.5350618 131.30377197 51.41842651 C135.56259186 55.75168023 137.88590326 59.5885012 138.20800781 65.80200195 C138.04802475 72.57128531 134.46146201 76.84682014 130.64550781 82.17700195 C129.0525566 84.45642279 127.47166748 86.74410492 125.89160156 89.0324707 C125.27520813 89.9240387 125.27520813 89.9240387 124.6463623 90.83361816 C123.64568587 92.28114212 122.64554078 93.72903338 121.64550781 95.17700195 C122.25658134 95.17846851 122.86765488 95.17993507 123.49724579 95.18144608 C138.3880248 95.21854945 153.2785962 95.27761084 168.16918182 95.36090469 C175.3702785 95.40065995 182.57126646 95.43307017 189.77246094 95.44799805 C196.05138055 95.46103291 202.33006058 95.48804396 208.60884523 95.53161502 C211.93137298 95.55418924 215.25354235 95.56783008 218.57615662 95.5688858 C222.29169555 95.57125353 226.00630169 95.59832058 229.72167969 95.63110352 C231.36166931 95.62355797 231.36166931 95.62355797 233.03479004 95.61585999 C240.99663953 95.72438567 246.23318463 97.38510117 252.39550781 102.42700195 C258.11831647 109.42154586 259.23131676 115.4177346 259.15344238 124.33544922 C259.16280233 125.99107423 259.16280233 125.99107423 259.17235136 127.68014622 C259.18826983 131.36811934 259.17568088 135.0554305 259.16308594 138.7434082 C259.16850756 141.39169231 259.17548605 144.03993124 259.18432617 146.6882019 C259.20208496 153.1281643 259.19828328 159.56793991 259.18667561 166.00790954 C259.17763112 171.2431731 259.17642167 176.47838442 259.18077087 181.71365356 C259.18169027 182.83258431 259.18169027 182.83258431 259.18262824 183.97411972 C259.18390718 185.48965162 259.18520404 187.00518349 259.18651861 188.52071536 C259.19791667 202.7219531 259.18482289 216.92308745 259.16331714 231.12430823 C259.14544684 243.3017553 259.14855117 255.47904983 259.16699219 267.65649414 C259.18841261 281.80794122 259.1968181 295.95929775 259.18454313 310.11075878 C259.18326898 311.62062262 259.18201149 313.13048647 259.18077087 314.64035034 C259.17984522 315.7545866 259.17984522 315.7545866 259.17890087 316.89133269 C259.17545148 322.11850543 259.18126743 327.3456206 259.19068909 332.57278442 C259.2019235 338.94557616 259.19883889 345.31817089 259.17756611 351.69094014 C259.16707482 354.94064335 259.16506452 358.18995173 259.17616272 361.43966293 C259.18709606 364.96628725 259.17337954 368.49198911 259.15344238 372.01855469 C259.16682671 373.55124921 259.16682671 373.55124921 259.18048143 375.11490726 C259.09600668 382.82066809 257.27117498 387.96785319 252.39550781 393.92700195 C243.91298224 400.86725015 236.07757949 400.73318253 225.59082031 400.63110352 C223.96404549 400.629974 222.33726863 400.63061093 220.710495 400.63287354 C216.31216823 400.63401756 211.914281 400.61055898 207.51605606 400.58257771 C202.91298929 400.55751192 198.30991159 400.55521798 193.70678711 400.55047607 C184.99817038 400.53806148 176.28975536 400.50526045 167.5812273 400.46507812 C157.66348391 400.42031314 147.74573071 400.39836149 137.82791138 400.37829638 C117.43366443 400.33652645 97.03959885 400.26620395 76.64550781 400.17700195 C76.76275208 400.77747849 76.87999634 401.37795502 77.00079346 401.99662781 C77.53625427 404.74761321 78.06747384 407.4994016 78.59863281 410.2512207 C78.87537842 411.6680011 78.87537842 411.6680011 79.15771484 413.11340332 C80.37663303 419.44929592 81.34318611 425.72243363 81.64550781 432.17700195 C82.5259375 432.11899414 83.40636719 432.06098633 84.31347656 432.0012207 C85.47492188 431.95610352 86.63636719 431.91098633 87.83300781 431.86450195 C88.9815625 431.80649414 90.13011719 431.74848633 91.31347656 431.6887207 C95.56520194 432.31177542 97.10791089 433.94861223 99.64550781 437.17700195 C100.23066162 437.90927002 100.81581543 438.64153809 101.41870117 439.39599609 C103.48357486 442.02976616 105.50557453 444.69236146 107.52050781 447.36450195 C108.20242188 448.25975586 108.88433594 449.15500977 109.58691406 450.07739258 C111.62413631 452.76458573 113.64018864 455.46593023 115.64550781 458.17700195 C116.31976807 459.08482422 116.99402832 459.99264648 117.6887207 460.92797852 C118.32285889 461.80292969 118.95699707 462.67788086 119.61035156 463.5793457 C120.17874756 464.35914795 120.74714355 465.1389502 121.33276367 465.94238281 C123.52134542 469.66789681 123.4464716 471.95373834 122.64550781 476.17700195 C121.10546875 478.37181854 121.10546875 478.37181854 118.64550781 480.17700195 C115.83235227 480.56985696 113.41062518 480.71778644 110.59863281 480.68493652 C109.37267395 480.69429647 109.37267395 480.69429647 108.12194824 480.7038455 C105.37950917 480.71981797 102.63795369 480.70715486 99.89550781 480.69458008 C97.9309843 480.69999931 95.96646485 480.70712085 94.00195312 480.71582031 C88.66314765 480.73408018 83.32465082 480.72697508 77.98583984 480.71430397 C72.40363725 480.70419013 66.82146142 480.71356515 61.23925781 480.71984863 C51.86420945 480.72712974 42.48928706 480.71752513 33.11425781 480.69848633 C22.26918442 480.67671676 11.4244118 480.6837678 0.5793457 480.70579195 C-8.72520526 480.7239327 -18.02966558 480.72651075 -27.33422852 480.71603727 C-32.89441866 480.70979507 -38.45446734 480.70898672 -44.01464844 480.72218323 C-49.2415579 480.73372178 -54.46807888 480.72575238 -59.69494629 480.7026062 C-61.61543126 480.69730845 -63.53594881 480.69885103 -65.4564209 480.70765686 C-68.07393057 480.71855396 -70.69018779 480.70492006 -73.30761719 480.68493652 C-74.45333191 480.69832085 -74.45333191 480.69832085 -75.62219238 480.71197557 C-79.05597559 480.66096596 -81.01186657 480.42758705 -83.81738281 478.37572479 C-85.66890248 475.72726096 -86.05546698 473.59625574 -85.87988281 470.3762207 C-84.82072892 465.94273638 -81.90281114 462.67671773 -79.10449219 459.17700195 C-78.47639648 458.36118652 -77.84830078 457.54537109 -77.20117188 456.70483398 C-75.90377855 455.01992031 -74.59935385 453.34039835 -73.28808594 451.66625977 C-71.4306727 449.27507474 -69.6188072 446.85704558 -67.82324219 444.41918945 C-67.27958008 443.6818457 -66.73591797 442.94450195 -66.17578125 442.18481445 C-65.14586055 440.78683632 -64.11654176 439.38841451 -63.08789062 437.98950195 C-59.58023045 433.28987108 -59.58023045 433.28987108 -57.35449219 432.17700195 C-55.14719989 432.10607354 -52.93781766 432.0928517 -50.72949219 432.11450195 C-49.54097656 432.12352539 -48.35246094 432.13254883 -47.12792969 432.1418457 C-45.75507813 432.15924805 -45.75507813 432.15924805 -44.35449219 432.17700195 C-44.32871094 431.62657227 -44.30292969 431.07614258 -44.27636719 430.5090332 C-43.80799123 423.64306749 -42.62478589 416.99437673 -41.30761719 410.2512207 C-41.12021973 409.28035522 -40.93282227 408.30948975 -40.73974609 407.3092041 C-40.28040799 404.93132487 -39.81859702 402.5539546 -39.35449219 400.17700195 C-40.19748367 400.18068913 -41.04047516 400.1843763 -41.90901184 400.1881752 C-62.43262889 400.27656042 -82.95621308 400.34272823 -103.47998047 400.38425064 C-113.40518026 400.40486494 -123.33025291 400.43296392 -133.25537109 400.47875977 C-141.90736381 400.51866217 -150.55926444 400.544443 -159.21134663 400.55335593 C-163.79145523 400.55856491 -168.37130039 400.57078431 -172.95132446 400.59992218 C-177.26544493 400.62714508 -181.57919435 400.63543311 -185.89339256 400.62943268 C-187.47358405 400.63052985 -189.0537884 400.63844286 -190.63390541 400.65382385 C-200.44590832 400.74462077 -207.25870179 400.34628501 -215.10449219 393.92700195 C-220.82730084 386.93245804 -221.94030114 380.93626931 -221.86242676 372.01855469 C-221.86866672 370.91480468 -221.87490668 369.81105467 -221.88133574 368.67385769 C-221.8972542 364.98588457 -221.88466525 361.2985734 -221.87207031 357.6105957 C-221.87749193 354.9623116 -221.88447042 352.31407266 -221.89331055 349.665802 C-221.91106934 343.2258396 -221.90726765 336.786064 -221.89565998 330.34609437 C-221.88661549 325.11083081 -221.88540604 319.87561948 -221.88975525 314.64035034 C-221.89036818 313.89439651 -221.89098111 313.14844268 -221.89161262 312.37988418 C-221.89289156 310.86435229 -221.89418841 309.34882041 -221.89550298 307.83328855 C-221.90690104 293.63205081 -221.89380726 279.43091646 -221.87230152 265.22969568 C-221.85443122 253.05224861 -221.85753554 240.87495408 -221.87597656 228.69750977 C-221.89739699 214.54606269 -221.90580248 200.39470615 -221.89352751 186.24324512 C-221.89225335 184.73338129 -221.89099587 183.22351743 -221.88975525 181.71365356 C-221.88913815 180.97082939 -221.88852104 180.22800522 -221.88788524 179.46267122 C-221.88443585 174.23549848 -221.8902518 169.00838331 -221.89967346 163.78121948 C-221.91090788 157.40842775 -221.90782326 151.03583302 -221.88655049 144.66306376 C-221.87605919 141.41336056 -221.87404889 138.16405218 -221.88514709 134.91434097 C-221.89608043 131.38771665 -221.88236391 127.8620148 -221.86242676 124.33544922 C-221.87134964 123.31365287 -221.88027253 122.29185652 -221.88946581 121.23909664 C-221.80499105 113.53333581 -219.98015935 108.38615071 -215.10449219 102.42700195 C-207.87217498 96.50965151 -201.64605009 95.58870378 -192.43066406 95.63110352 C-191.25906738 95.62076584 -190.0874707 95.61042816 -188.88037109 95.59977722 C-185.02785362 95.57040179 -181.17586275 95.56885108 -177.32324219 95.56762695 C-174.64421922 95.55264177 -171.96525057 95.53610774 -169.28625488 95.51751709 C-162.96831493 95.47705824 -156.65047793 95.45664033 -150.33242846 95.4435432 C-143.13518995 95.42763869 -135.93812579 95.38920872 -128.74098873 95.34894991 C-113.94556014 95.2666897 -99.15010868 95.21251104 -84.35449219 95.17700195 C-84.8036499 94.52103027 -85.25280762 93.86505859 -85.71557617 93.18920898 C-87.74233708 90.22768631 -89.76718737 87.26486232 -91.79199219 84.30200195 C-92.49904297 83.26946289 -93.20609375 82.23692383 -93.93457031 81.1730957 C-94.94487305 79.69389648 -94.94487305 79.69389648 -95.97558594 78.18481445 C-96.91035767 76.81800537 -96.91035767 76.81800537 -97.86401367 75.42358398 C-100.0226591 72.16988124 -100.5338942 70.3098914 -100.60449219 66.42700195 C-100.63027344 65.5865332 -100.65605469 64.74606445 -100.68261719 63.88012695 C-99.87482814 57.22548382 -95.65597001 53.03257549 -91.11230469 48.53637695 C-90.50691864 47.92812073 -89.90153259 47.3198645 -89.27780151 46.69317627 C-88.00219905 45.41554112 -86.72283539 44.14165132 -85.43994141 42.87133789 C-83.48209254 40.92958093 -81.54079724 38.97230243 -79.60058594 37.01293945 C-78.35545316 35.7697887 -77.1093903 34.52756867 -75.86230469 33.28637695 C-75.28505646 32.70305603 -74.70780823 32.11973511 -74.11306763 31.51873779 C-69.77981391 27.25991791 -65.94299294 24.93660651 -59.72949219 24.61450195 C-52.36094761 24.78864776 -47.4085414 29.192985 -41.68212891 33.40795898 C-40.52430635 34.25607458 -39.36274861 35.0991146 -38.19750977 35.93701172 C-36.55218692 37.12453407 -34.92548794 38.3377324 -33.29980469 39.55200195 C-30.53894414 41.41142289 -30.53894414 41.41142289 -27.78417969 41.05200195 C-26.98238281 40.76325195 -26.18058594 40.47450195 -25.35449219 40.17700195 C-24.45988281 39.94368164 -23.56527344 39.71036133 -22.64355469 39.4699707 C-20.12753759 38.35908478 -20.12753759 38.35908478 -19.31542969 35.6652832 C-19.12207031 34.61727539 -18.92871094 33.56926758 -18.72949219 32.48950195 C-18.50003906 31.33063477 -18.27058594 30.17176758 -18.03417969 28.9777832 C-17.80988281 27.72352539 -17.58558594 26.46926758 -17.35449219 25.17700195 C-16.98589221 23.16542903 -16.61187202 21.15520648 -16.22802734 19.14648438 C-15.87087939 17.26340428 -15.53406421 15.37650191 -15.19824219 13.48950195 C-13.72318183 7.69852425 -11.16193898 4.62850221 -6.35449219 1.17700195 C-4.01914443 0.00932808 -2.6026944 0.03224259 0 0 Z M1.64550781 16.17700195 C0.16415669 25.11898085 0.16415669 25.11898085 -1.28515625 34.06616211 C-1.47819336 35.18812988 -1.67123047 36.31009766 -1.87011719 37.46606445 C-2.15290527 39.17850342 -2.15290527 39.17850342 -2.44140625 40.92553711 C-3.92355707 46.20342069 -6.64798115 50.31855213 -11.35449219 53.17700195 C-18.89117621 56.84712929 -26.89930794 59.9959956 -35.35449219 58.17700195 C-41.03750628 55.31167389 -46.12657642 51.62733407 -51.29199219 47.92700195 C-52.07123047 47.37270508 -52.85046875 46.8184082 -53.65332031 46.24731445 C-55.55578523 44.89341304 -57.45610001 43.53660504 -59.35449219 42.17700195 C-64.97752975 46.85166532 -70.15190773 51.85465863 -75.29199219 57.05200195 C-76.07123047 57.83575195 -76.85046875 58.61950195 -77.65332031 59.42700195 C-79.55603303 61.34138776 -81.45635389 63.25808229 -83.35449219 65.17700195 C-80.49205819 70.4259308 -77.27093826 75.16311032 -73.66699219 79.92700195 C-72.68028312 81.23155133 -71.69705321 82.53874147 -70.71777344 83.84887695 C-70.28762939 84.41703125 -69.85748535 84.98518555 -69.41430664 85.57055664 C-66.32807728 90.24860069 -66.69453872 95.83452149 -67.35449219 101.17700195 C-68.05971561 103.87446421 -68.97291867 106.45336306 -69.97949219 109.05200195 C-70.21482666 109.68203125 -70.45016113 110.31206055 -70.69262695 110.96118164 C-72.73440304 115.86353369 -75.06830745 118.24518786 -79.35449219 121.17700195 C-82.18652344 122.21606445 -82.18652344 122.21606445 -85.16699219 122.80200195 C-86.28074219 123.02758789 -87.39449219 123.25317383 -88.54199219 123.4855957 C-90.42917969 123.8278418 -90.42917969 123.8278418 -92.35449219 124.17700195 C-93.09957031 124.31380371 -93.84464844 124.45060547 -94.61230469 124.59155273 C-99.52110023 125.48967601 -104.43470827 126.33703884 -109.35449219 127.17700195 C-109.35449219 138.39700195 -109.35449219 149.61700195 -109.35449219 161.17700195 C-100.41251329 162.65835307 -100.41251329 162.65835307 -91.46533203 164.10766602 C-90.34336426 164.30070313 -89.22139648 164.49374023 -88.06542969 164.69262695 C-86.92380371 164.88115234 -85.78217773 165.06967773 -84.60595703 165.26391602 C-79.32807345 166.74606683 -75.21294201 169.47049092 -72.35449219 174.17700195 C-68.68436485 181.71368597 -65.53549854 189.7218177 -67.35449219 198.17700195 C-70.21982025 203.86001605 -73.90416007 208.94908619 -77.60449219 214.11450195 C-78.15878906 214.89374023 -78.71308594 215.67297852 -79.28417969 216.47583008 C-80.6380811 218.378295 -81.9948891 220.27860977 -83.35449219 222.17700195 C-78.67982882 227.80003952 -73.67683551 232.97441749 -68.47949219 238.11450195 C-67.69574219 238.89374023 -66.91199219 239.67297852 -66.10449219 240.47583008 C-64.19010638 242.3785428 -62.27341185 244.27886366 -60.35449219 246.17700195 C-55.10556334 243.31456796 -50.36838382 240.09344803 -45.60449219 236.48950195 C-44.29994281 235.50279288 -42.99275267 234.51956297 -41.68261719 233.5402832 C-41.11446289 233.11013916 -40.54630859 232.67999512 -39.9609375 232.23681641 C-35.28289345 229.15058704 -29.69697266 229.51704848 -24.35449219 230.17700195 C-21.65702993 230.88222538 -19.07813108 231.79542843 -16.47949219 232.80200195 C-15.84946289 233.03733643 -15.21943359 233.2726709 -14.5703125 233.51513672 C-9.66796045 235.55691281 -7.28630628 237.89081721 -4.35449219 242.17700195 C-3.31542969 245.0090332 -3.31542969 245.0090332 -2.72949219 247.98950195 C-2.50390625 249.10325195 -2.27832031 250.21700195 -2.04589844 251.36450195 C-1.70365234 253.25168945 -1.70365234 253.25168945 -1.35449219 255.17700195 C-1.21769043 255.92208008 -1.08088867 256.6671582 -0.93994141 257.43481445 C-0.04181813 262.34361 0.8055447 267.25721803 1.64550781 272.17700195 C12.86550781 272.17700195 24.08550781 272.17700195 35.64550781 272.17700195 C37.12685893 263.23502305 37.12685893 263.23502305 38.57617188 254.2878418 C38.76920898 253.16587402 38.96224609 252.04390625 39.16113281 250.88793945 C39.3496582 249.74631348 39.53818359 248.6046875 39.73242188 247.4284668 C41.21457269 242.15058322 43.93899678 238.03545177 48.64550781 235.17700195 C56.18219183 231.50687462 64.19032356 228.35800831 72.64550781 230.17700195 C78.3285219 233.04233002 83.41759205 236.72666984 88.58300781 240.42700195 C89.75186523 241.25844727 89.75186523 241.25844727 90.94433594 242.10668945 C92.84680086 243.46059087 94.74711563 244.81739886 96.64550781 246.17700195 C102.26854538 241.50233858 107.44292335 236.49934528 112.58300781 231.30200195 C113.75186523 230.12637695 113.75186523 230.12637695 114.94433594 228.92700195 C116.84704866 227.01261615 118.74736952 225.09592162 120.64550781 223.17700195 C117.78307382 217.9280731 114.56195389 213.19089359 110.95800781 208.42700195 C109.97129874 207.12245258 108.98806883 205.81526244 108.00878906 204.50512695 C107.57864502 203.93697266 107.14850098 203.36881836 106.70532227 202.78344727 C103.6190929 198.10540322 103.98555434 192.51948242 104.64550781 187.17700195 C105.35073124 184.47953969 106.26393429 181.90064085 107.27050781 179.30200195 C107.50584229 178.67197266 107.74117676 178.04194336 107.98364258 177.39282227 C110.02541866 172.49047022 112.35932307 170.10881605 116.64550781 167.17700195 C119.47753906 166.13793945 119.47753906 166.13793945 122.45800781 165.55200195 C123.57175781 165.32641602 124.68550781 165.10083008 125.83300781 164.8684082 C127.09113281 164.64024414 128.34925781 164.41208008 129.64550781 164.17700195 C130.39058594 164.0402002 131.13566406 163.90339844 131.90332031 163.76245117 C136.81211586 162.86432789 141.72572389 162.01696506 146.64550781 161.17700195 C146.64550781 149.95700195 146.64550781 138.73700195 146.64550781 127.17700195 C137.70352891 125.69565083 137.70352891 125.69565083 128.75634766 124.24633789 C127.073396 123.95678223 127.073396 123.95678223 125.35644531 123.66137695 C123.64400635 123.37858887 123.64400635 123.37858887 121.89697266 123.09008789 C116.61908908 121.60793707 112.50395763 118.88351299 109.64550781 114.17700195 C105.97538048 106.64031793 102.82651417 98.6321862 104.64550781 90.17700195 C107.51083588 84.49398786 111.1951757 79.40491772 114.89550781 74.23950195 C115.72695313 73.07064453 115.72695313 73.07064453 116.57519531 71.87817383 C117.92909673 69.97570891 119.28590472 68.07539413 120.64550781 66.17700195 C115.97084444 60.55396439 110.96785114 55.37958641 105.77050781 50.23950195 C104.98675781 49.46026367 104.20300781 48.68102539 103.39550781 47.87817383 C101.48112201 45.97546111 99.56442747 44.07514025 97.64550781 42.17700195 C92.39657896 45.03943595 87.65939945 48.26055588 82.89550781 51.86450195 C81.59095844 52.85121102 80.2837683 53.83444093 78.97363281 54.8137207 C78.40547852 55.24386475 77.83732422 55.67400879 77.25195312 56.1171875 C72.57390908 59.20341686 66.98798828 58.83695542 61.64550781 58.17700195 C58.94804555 57.47177853 56.36914671 56.55857547 53.77050781 55.55200195 C52.82546387 55.19900024 52.82546387 55.19900024 51.86132812 54.83886719 C46.95897608 52.7970911 44.57732191 50.46318669 41.64550781 46.17700195 C40.60644531 43.3449707 40.60644531 43.3449707 40.02050781 40.36450195 C39.79492188 39.25075195 39.56933594 38.13700195 39.33691406 36.98950195 C39.10875 35.73137695 38.88058594 34.47325195 38.64550781 33.17700195 C38.50870605 32.43192383 38.3719043 31.6868457 38.23095703 30.91918945 C37.33283375 26.01039391 36.48547092 21.09678587 35.64550781 16.17700195 C24.42550781 16.17700195 13.20550781 16.17700195 1.64550781 16.17700195 Z M-204.35449219 116.17700195 C-222.14062176 187.32152025 -205.35449219 262.84291105 -205.35449219 336.17700195 C-57.51449219 336.17700195 90.32550781 336.17700195 242.64550781 336.17700195 C255.32562455 223.04245219 255.32562455 223.04245219 240.64550781 115.17700195 C237.22953864 111.76103278 233.78086268 112.06212245 229.07092285 112.05258179 C227.97040588 112.0579747 227.97040588 112.0579747 226.84765625 112.06347656 C225.67635162 112.06325752 225.67635162 112.06325752 224.48138428 112.06303406 C221.90585532 112.06372953 219.3303991 112.07150484 216.75488281 112.0793457 C214.96698038 112.08121118 213.17907744 112.08263447 211.39117432 112.08363342 C206.68939804 112.08744838 201.98765273 112.09726997 197.28588867 112.1083374 C192.48649515 112.11857346 187.68709661 112.12313575 182.88769531 112.12817383 C173.47361922 112.13889314 164.05956609 112.15595733 154.64550781 112.17700195 C155.05542969 112.57790039 155.46535156 112.97879883 155.88769531 113.3918457 C160.26129567 118.00609871 161.82070854 121.90568334 162.64550781 128.17700195 C163.96268799 128.19158447 165.27986816 128.20616699 166.63696289 128.22119141 C171.51810019 128.27910909 176.39877299 128.35634231 181.27954102 128.43945312 C183.39307117 128.47273323 185.50669087 128.50075548 187.62036133 128.5234375 C190.65647587 128.55692668 193.69176756 128.60923959 196.72753906 128.6652832 C197.6745015 128.67167313 198.62146393 128.67806305 199.59712219 128.68464661 C200.47780869 128.70444077 201.35849518 128.72423492 202.26586914 128.74462891 C203.04086258 128.75573196 203.81585602 128.76683502 204.61433411 128.77827454 C207.21154211 129.28811672 207.99051363 130.14038351 209.64550781 132.17700195 C209.91400667 135.18025013 210.0003177 137.9739558 209.95092773 140.9753418 C209.94826904 141.87483047 209.94561035 142.77431915 209.94287109 143.70106506 C209.93591159 145.65560421 209.92247609 147.61012847 209.90337181 149.56458664 C209.87579714 152.65806753 209.87083382 155.75079609 209.87287903 158.84439087 C209.87641599 167.64009683 209.85329914 176.43529793 209.77954102 185.23071289 C209.73604322 190.60964418 209.7312718 195.98745099 209.75112343 201.36650467 C209.75102579 203.41666675 209.73612319 205.4668834 209.70616722 207.51682663 C209.66536031 210.38579367 209.67372433 213.25077076 209.69311523 216.11987305 C209.66899063 216.96680222 209.64486603 217.81373138 209.62001038 218.68632507 C209.66635633 221.09970483 209.78509155 222.91882311 210.64550781 225.17700195 C212.53918488 226.87522597 214.37298802 227.97999096 216.64822865 229.10869789 C221.39327156 231.64672497 224.01590602 236.16669119 225.64550781 241.17700195 C226.45506853 249.05609871 226.71363348 256.72529302 221.64550781 263.17700195 C217.01227794 268.54761589 211.61163364 271.06584078 204.64550781 272.17700195 C198.37393289 272.42620361 192.78707593 270.78151181 187.64550781 267.17700195 C182.92306465 262.76869027 179.98237974 258.45562761 179.30957031 251.9074707 C179.21855683 243.65254755 179.43484086 237.53421184 185.32910156 231.43481445 C188.33660223 228.73129773 190.98315559 227.00817807 194.64550781 225.17700195 C194.64550781 198.44700195 194.64550781 171.71700195 194.64550781 144.17700195 C184.08550781 144.17700195 173.52550781 144.17700195 162.64550781 144.17700195 C162.47543476 151.47569094 162.47543476 151.47569094 162.34765625 158.77514648 C162.15183584 164.65285065 161.81669475 168.67499674 157.64550781 173.17700195 C153.22670055 176.84839015 147.77745315 177.31020493 142.27050781 178.23950195 C131.68853983 179.2806059 131.68853983 179.2806059 123.01660156 184.1652832 C122.70851563 184.93227539 122.40042969 185.69926758 122.08300781 186.48950195 C121.58607422 187.62838867 121.58607422 187.62838867 121.07910156 188.7902832 C120.3900182 192.58334569 122.07744936 195.25485734 124.05004883 198.45703125 C124.57783936 199.21411377 125.10562988 199.97119629 125.64941406 200.7512207 C126.22498047 201.58331055 126.80054688 202.41540039 127.39355469 203.27270508 C128.29170898 204.55564453 128.29170898 204.55564453 129.20800781 205.86450195 C130.39781523 207.5760431 131.58666557 209.28825009 132.77441406 211.0012207 C133.30107666 211.75491943 133.82773926 212.50861816 134.37036133 213.28515625 C137.36765519 217.73203164 137.08190727 221.94020846 136.64550781 227.17700195 C134.83084955 232.41934803 131.62151193 235.46606478 127.64550781 239.17700195 C129.03147648 242.31105863 130.63621937 244.39534377 133.08691406 246.77856445 C133.75271484 247.4334082 134.41851562 248.08825195 135.10449219 248.76293945 C135.79865234 249.43583008 136.4928125 250.1087207 137.20800781 250.80200195 C138.58649318 252.14612065 139.96290182 253.49237348 141.33691406 254.84106445 C141.94736572 255.4335498 142.55781738 256.02603516 143.18676758 256.63647461 C146.14240744 259.75782817 145.6750251 262.32896843 145.70800781 266.48950195 C145.88905875 271.17333069 145.88905875 271.17333069 148.31347656 274.93481445 C150.38415578 276.14244341 150.38415578 276.14244341 152.57519531 277.1418457 C156.53126834 279.11988222 158.82488347 282.50396852 160.75488281 286.4387207 C162.87014447 292.94222255 162.92118187 301.37942261 160.08300781 307.67700195 C156.02713139 314.27663362 150.65094791 317.87220811 143.19238281 319.77075195 C136.06644498 320.90740461 129.55194228 319.31772338 123.64550781 315.17700195 C118.92306465 310.76869027 115.98237974 306.45562761 115.30957031 299.9074707 C115.21855683 291.65254755 115.43484086 285.53421184 121.32910156 279.43481445 C124.25159632 276.80771164 127.08217156 274.8492694 130.64550781 273.17700195 C130.91199492 270.2345401 131.00638022 268.68663825 129.26855469 266.23242188 C128.64013672 265.63018799 128.01171875 265.0279541 127.36425781 264.4074707 C126.6875 263.74682617 126.01074219 263.08618164 125.31347656 262.40551758 C124.59804688 261.73198242 123.88261719 261.05844727 123.14550781 260.36450195 C122.43007813 259.67163086 121.71464844 258.97875977 120.97753906 258.26489258 C119.2109036 256.55714497 117.43368294 254.86213508 115.64550781 253.17700195 C111.96783239 254.94706471 109.33465161 257.09936317 106.32910156 259.8371582 C102.81230256 262.63591008 98.76854327 262.69814134 94.44628906 262.6418457 C88.40924153 261.63988105 83.7937101 257.49426267 78.97314453 253.94604492 C77.81532197 253.09792932 76.65376424 252.2548893 75.48852539 251.41699219 C73.84320254 250.22946984 72.21650357 249.01627151 70.59082031 247.80200195 C67.81125063 245.91775283 67.81125063 245.91775283 64.95800781 246.38012695 C63.81332031 246.77458008 63.81332031 246.77458008 62.64550781 247.17700195 C61.61425781 247.42450195 60.58300781 247.67200195 59.52050781 247.92700195 C54.6693218 251.72358231 54.64666387 257.32782351 53.64550781 263.17700195 C53.28054922 265.18846067 52.90627136 267.19760779 52.52124023 269.20532227 C52.16229175 271.08892715 51.82522909 272.97666333 51.48925781 274.86450195 C50.14977203 280.12322393 48.19254756 283.35557929 43.56286621 286.33227539 C39.64058738 288.06030554 35.42437026 287.74394772 31.20800781 287.70825195 C30.20970947 287.71207886 29.21141113 287.71590576 28.18286133 287.71984863 C26.07827746 287.72256306 23.97365959 287.71523487 21.86914062 287.69848633 C18.6558072 287.67707059 15.44470955 287.6983046 12.23144531 287.72387695 C10.18196123 287.72123359 8.13247854 287.71610845 6.08300781 287.70825195 C5.126604 287.71634888 4.1702002 287.7244458 3.18481445 287.73278809 C-2.64119434 287.65127084 -5.88517815 286.99388408 -10.35449219 283.17700195 C-14.02588038 278.75819469 -14.48769516 273.30894729 -15.41699219 267.80200195 C-16.45809614 257.22003397 -16.45809614 257.22003397 -21.34277344 248.5480957 C-22.10976562 248.24000977 -22.87675781 247.93192383 -23.66699219 247.61450195 C-24.42625 247.28321289 -25.18550781 246.95192383 -25.96777344 246.6105957 C-29.76083592 245.92151234 -32.43234758 247.6089435 -35.63452148 249.58154297 C-36.391604 250.1093335 -37.14868652 250.63712402 -37.92871094 251.1809082 C-38.76080078 251.75647461 -39.59289062 252.33204102 -40.45019531 252.92504883 C-41.30548828 253.52381836 -42.16078125 254.12258789 -43.04199219 254.73950195 C-44.75353334 255.92930937 -46.46574033 257.11815971 -48.17871094 258.3059082 C-48.93240967 258.8325708 -49.6861084 259.3592334 -50.46264648 259.90185547 C-54.90952187 262.89914933 -59.11769869 262.61340141 -64.35449219 262.17700195 C-69.59683827 260.36234369 -72.64355501 257.15300607 -76.35449219 253.17700195 C-80.76548138 255.19141758 -83.69270002 258.11145278 -87.10449219 261.48950195 C-88.00748047 262.34318359 -88.00748047 262.34318359 -88.92871094 263.21411133 C-92.34052813 266.55530516 -92.34052813 266.55530516 -93.97558594 270.94262695 C-93.55277377 273.25836887 -93.55277377 273.25836887 -91.78027344 274.5480957 C-91.08289063 274.90000977 -90.38550781 275.25192383 -89.66699219 275.61450195 C-83.92081137 278.85880581 -80.43079561 282.79327958 -78.35449219 289.17700195 C-77.54493147 297.05609871 -77.28636652 304.72529302 -82.35449219 311.17700195 C-86.98772206 316.54761589 -92.38836636 319.06584078 -99.35449219 320.17700195 C-105.62606711 320.42620361 -111.21292407 318.78151181 -116.35449219 315.17700195 C-121.07693535 310.76869027 -124.01762026 306.45562761 -124.69042969 299.9074707 C-124.78144317 291.65254755 -124.56515914 285.53421184 -118.67089844 279.43481445 C-116.27190591 277.27830074 -114.21830609 275.48386302 -111.15527344 274.39575195 C-110.56101562 273.99356445 -109.96675781 273.59137695 -109.35449219 273.17700195 C-108.91091931 270.32628825 -108.91091931 270.32628825 -109.04199219 267.05200195 C-108.66508463 259.73839153 -106.62186506 256.97880114 -101.35449219 252.17700195 C-100.37931957 251.20555266 -99.40962143 250.22858876 -98.44433594 249.24731445 C-95.77197154 246.53186131 -93.07048704 243.84879436 -90.35449219 241.17700195 C-92.04181076 237.46816161 -94.29220539 234.84929235 -97.01464844 231.8605957 C-99.81340031 228.3437967 -99.87563158 224.30003741 -99.81933594 219.9777832 C-98.81737128 213.94073567 -94.67175291 209.32520424 -91.12353516 204.50463867 C-90.27541956 203.34681611 -89.43237954 202.18525838 -88.59448242 201.02001953 C-87.40696008 199.37469668 -86.19376174 197.74799771 -84.97949219 196.12231445 C-83.09524307 193.34274477 -83.09524307 193.34274477 -83.55761719 190.48950195 C-83.95207031 189.34481445 -83.95207031 189.34481445 -84.35449219 188.17700195 C-84.60199219 187.14575195 -84.84949219 186.11450195 -85.10449219 185.05200195 C-88.90107254 180.20081594 -94.50531374 180.17815802 -100.35449219 179.17700195 C-102.3659509 178.81204336 -104.37509802 178.4377655 -106.3828125 178.05273438 C-108.26641739 177.6937859 -110.15415356 177.35672323 -112.04199219 177.02075195 C-116.73777299 175.82465684 -119.32935276 174.28344554 -122.62011719 170.73168945 C-125.11057749 165.62736767 -125.0272482 160.90849701 -125.10449219 155.30200195 C-125.18699219 151.63075195 -125.26949219 147.95950195 -125.35449219 144.17700195 C-135.91449219 144.17700195 -146.47449219 144.17700195 -157.35449219 144.17700195 C-157.5352639 154.65168 -157.68201513 165.12532167 -157.76898956 175.60120678 C-157.81073432 180.46568453 -157.86734697 185.32903958 -157.95800781 190.19287109 C-158.04496325 194.88731716 -158.09277169 199.58068393 -158.11351013 204.27587318 C-158.1282873 206.06658233 -158.15714589 207.85723263 -158.20033264 209.64748192 C-158.87204295 219.0182108 -158.87204295 219.0182108 -155.62133789 227.30557251 C-153.56121666 228.5804918 -151.61458584 229.3346657 -149.35449219 230.17700195 C-144.98275249 234.11931034 -142.61783404 238.61401205 -142.01855469 244.4465332 C-141.92666404 252.78101535 -142.31545501 258.49514719 -147.82714844 264.8840332 C-152.79404832 269.71002812 -158.81275827 271.9965357 -165.71386719 272.27075195 C-172.96261395 271.77083838 -178.85717667 269.15449668 -183.72949219 263.73950195 C-189.30802452 257.02344767 -189.10360156 249.54995861 -188.35449219 241.17700195 C-186.70110697 234.89017794 -182.61330985 230.79820534 -177.35449219 227.17700195 C-176.02648326 226.49979111 -174.69372756 225.83173155 -173.35449219 225.17700195 C-173.34862595 224.0185527 -173.3427597 222.86010345 -173.3367157 221.66654968 C-173.27956533 210.76268318 -173.2068442 199.85901758 -173.11877728 188.95535564 C-173.07400152 183.34932065 -173.03476134 177.74335955 -173.00805664 172.13720703 C-172.9820955 166.72950543 -172.94174433 161.32208709 -172.89130592 155.91456032 C-172.87458845 153.8488803 -172.86310467 151.78315123 -172.85687828 149.71741295 C-172.84729018 146.82953389 -172.81929474 143.94238755 -172.78686523 141.0546875 C-172.78830032 140.19585464 -172.78973541 139.33702179 -172.79121399 138.4521637 C-172.69792323 132.59912404 -172.69792323 132.59912404 -170.95652008 130.45870972 C-168.87078194 128.79000796 -167.62793208 128.78263863 -164.97485352 128.74462891 C-163.65382378 128.71493767 -163.65382378 128.71493767 -162.30610657 128.68464661 C-161.35914413 128.67825668 -160.4121817 128.67186676 -159.43652344 128.6652832 C-157.97795174 128.6383564 -157.97795174 128.6383564 -156.48991394 128.61088562 C-153.38231755 128.55667728 -150.27487567 128.52285298 -147.16699219 128.48950195 C-145.06085085 128.45633819 -142.95472992 128.42184942 -140.84863281 128.38598633 C-135.68403057 128.30094464 -130.519475 128.23418355 -125.35449219 128.17700195 C-125.17273438 127.25359009 -125.17273438 127.25359009 -124.98730469 126.31152344 C-124.81972656 125.50271729 -124.65214844 124.69391113 -124.47949219 123.8605957 C-124.31707031 123.05936279 -124.15464844 122.25812988 -123.98730469 121.43261719 C-122.86400197 117.42868439 -120.21495644 115.0374662 -117.35449219 112.17700195 C-127.69882399 112.13064993 -138.04313106 112.09511813 -148.38754559 112.07337761 C-153.19093686 112.06294296 -157.99425705 112.04878951 -162.79760742 112.02612305 C-167.43359386 112.0043834 -172.06951194 111.99243093 -176.70554543 111.98724747 C-178.47376392 111.98355374 -180.2419787 111.97634082 -182.01016808 111.96554184 C-184.48789921 111.95101203 -186.96534831 111.94902464 -189.44311523 111.94995117 C-190.17319794 111.94276062 -190.90328064 111.93557007 -191.65548706 111.92816162 C-196.83834134 111.9491164 -200.61967288 112.44218264 -204.35449219 116.17700195 Z M-170.72949219 242.80200195 C-172.84155725 245.88886627 -172.96644364 247.50529326 -172.35449219 251.17700195 C-170.85449219 253.67700195 -170.85449219 253.67700195 -168.35449219 255.17700195 C-164.68278349 255.7889534 -163.0663565 255.66406701 -159.97949219 253.55200195 C-157.86742713 250.46513764 -157.74254074 248.84871065 -158.35449219 245.17700195 C-159.85449219 242.67700195 -159.85449219 242.67700195 -162.35449219 241.17700195 C-166.02620088 240.5650505 -167.64262787 240.6899369 -170.72949219 242.80200195 Z M197.27050781 242.80200195 C195.15844275 245.88886627 195.03355636 247.50529326 195.64550781 251.17700195 C197.14550781 253.67700195 197.14550781 253.67700195 199.64550781 255.17700195 C203.31721651 255.7889534 204.9336435 255.66406701 208.02050781 253.55200195 C210.13257287 250.46513764 210.25745926 248.84871065 209.64550781 245.17700195 C208.14550781 242.67700195 208.14550781 242.67700195 205.64550781 241.17700195 C201.97379912 240.5650505 200.35737213 240.6899369 197.27050781 242.80200195 Z M-106.72949219 290.80200195 C-108.84155725 293.88886627 -108.96644364 295.50529326 -108.35449219 299.17700195 C-106.85449219 301.67700195 -106.85449219 301.67700195 -104.35449219 303.17700195 C-100.68278349 303.7889534 -99.0663565 303.66406701 -95.97949219 301.55200195 C-93.86742713 298.46513764 -93.74254074 296.84871065 -94.35449219 293.17700195 C-95.85449219 290.67700195 -95.85449219 290.67700195 -98.35449219 289.17700195 C-102.02620088 288.5650505 -103.64262787 288.6899369 -106.72949219 290.80200195 Z M133.27050781 290.80200195 C131.15844275 293.88886627 131.03355636 295.50529326 131.64550781 299.17700195 C133.14550781 301.67700195 133.14550781 301.67700195 135.64550781 303.17700195 C139.31721651 303.7889534 140.9336435 303.66406701 144.02050781 301.55200195 C146.13257287 298.46513764 146.25745926 296.84871065 145.64550781 293.17700195 C144.14550781 290.67700195 144.14550781 290.67700195 141.64550781 289.17700195 C137.97379912 288.5650505 136.35737213 288.6899369 133.27050781 290.80200195 Z M-205.35449219 352.17700195 C-206.84005489 373.36062266 -206.84005489 373.36062266 -203.35449219 381.17700195 C-199.58887375 384.94262039 -195.25187242 384.30287796 -190.12956333 384.30563641 C-189.3970685 384.30738944 -188.66457368 384.30914248 -187.90988204 384.31094864 C-185.4421457 384.31562053 -182.97446797 384.31314009 -180.50672913 384.31071472 C-178.72492612 384.31258209 -176.94312352 384.3148825 -175.16132158 384.31758004 C-170.2545275 384.32371352 -165.34775042 384.32356264 -160.44095337 384.32238567 C-155.15321407 384.32218205 -149.86548028 384.32769662 -144.57774353 384.33244324 C-134.2146164 384.3407586 -123.85149495 384.34349847 -113.48836476 384.34405562 C-105.06792531 384.34453031 -96.64748773 384.34658274 -88.22704887 384.34975624 C-64.37019656 384.35856488 -40.51334875 384.36317524 -16.6564948 384.36242577 C-15.36968794 384.36238581 -14.08288108 384.36234585 -12.75708008 384.36230469 C-11.46870805 384.36226381 -10.18033603 384.36222293 -8.85292243 384.36218081 C12.03680016 384.36177417 32.92650474 384.37134749 53.81622212 384.38544305 C75.24931939 384.39979155 96.68240786 384.4067141 118.11551005 384.40584928 C130.1551744 384.4055168 142.19481987 384.40828607 154.2344799 384.41902733 C164.48346283 384.42811222 174.73241832 384.43032416 184.98140352 384.42351791 C190.21333339 384.42024263 195.44521054 384.4202322 200.67713547 384.42887115 C205.46308037 384.43669266 210.24893037 384.43534958 215.03487284 384.42658702 C216.76968986 384.4250424 218.5045138 384.42690409 220.23932265 384.4324471 C222.59124386 384.43946638 224.94282835 384.43424587 227.29473782 384.42589092 C228.60298438 384.42610829 229.91123095 384.42632566 231.25912136 384.42654961 C235.67613639 384.10105346 238.49873857 383.32377119 241.64550781 380.17700195 C243.91061685 371.1165658 242.64550781 361.51628577 242.64550781 352.17700195 C94.80550781 352.17700195 -53.03449219 352.17700195 -205.35449219 352.17700195 Z M-22.35449219 400.17700195 C-25.77165735 416.098515 -25.77165735 416.098515 -27.35449219 432.17700195 C3.00550781 432.17700195 33.36550781 432.17700195 64.64550781 432.17700195 C63.11871015 421.4894183 61.57677107 410.79894988 59.64550781 400.17700195 C32.58550781 400.17700195 5.52550781 400.17700195 -22.35449219 400.17700195 Z M-58.00722694 457.8402195 C-59.68622056 460.86164198 -59.68622056 460.86164198 -60.35449219 464.17700195 C-8.21449219 464.17700195 43.92550781 464.17700195 97.64550781 464.17700195 C95.66550781 461.20700195 93.68550781 458.23700195 91.64550781 455.17700195 C90.62077866 453.19801407 90.62077866 453.19801407 89.5753479 451.17904663 C87.85023595 448.82259025 86.93394673 448.25007234 84.06641769 447.52363968 C80.61615923 447.20275437 77.23337804 447.13979935 73.76806641 447.14428711 C72.4585199 447.11917053 71.14897339 447.09405396 69.79974365 447.06817627 C66.21244404 447.00215429 62.62627781 446.98155086 59.03842878 446.97327089 C56.79305962 446.96606161 54.54797861 446.94913371 52.30269241 446.92878342 C44.45731943 446.85804594 36.61277274 446.82456131 28.76708984 446.82495117 C21.47359663 446.82432011 14.18415135 446.74182577 6.89175165 446.62082827 C0.61619687 446.52042444 -5.65803654 446.47849057 -11.93438852 446.48098218 C-15.67699833 446.48146181 -19.41584943 446.45894373 -23.15764236 446.37709427 C-43.58345186 445.29128626 -43.58345186 445.29128626 -58.00722694 457.8402195 Z " fill="#000000" transform="translate(237.3544921875,15.822998046875)"/>
<path d="M0 0 C14.35546434 11.70990834 26.06794902 27.89121936 28.30664062 46.72021484 C29.76601625 68.44058871 26.97909464 88.67535502 12.32739258 105.62890625 C-0.87957734 120.09489289 -17.32732525 130.10586173 -37.24804688 131.03271484 C-57.93878131 131.62467515 -76.50369154 127.612305 -92.13085938 113.34521484 C-106.8738166 99.20544466 -115.50400135 82.70692505 -116.09399414 62.08496094 C-116.33065412 41.68831843 -111.22582647 23.74080029 -96.89331055 8.796875 C-71.34187485 -16.78517169 -29.7766123 -22.50418132 0 0 Z M-77.69335938 14.72021484 C-78.32757813 15.15849609 -78.96179688 15.59677734 -79.61523438 16.04833984 C-89.83046062 23.82690661 -95.95731377 36.46227948 -98.69335938 48.72021484 C-100.10866313 65.38175626 -97.74581484 79.03770601 -87.69335938 92.72021484 C-87.19320312 93.42791016 -86.69304687 94.13560547 -86.17773438 94.86474609 C-78.54810568 104.63298283 -65.84051735 111.77305895 -53.69335938 113.72021484 C-37.04169669 115.26699434 -23.37770564 112.77402026 -9.69335938 102.72021484 C-8.98566406 102.22005859 -8.27796875 101.71990234 -7.54882812 101.20458984 C2.21940861 93.57496115 9.35948473 80.86737282 11.30664062 68.72021484 C12.85342013 52.06855216 10.36044604 38.4045611 0.30664062 24.72021484 C-0.19351563 24.01251953 -0.69367188 23.30482422 -1.20898438 22.57568359 C-8.83861307 12.80744686 -21.5462014 5.66737074 -33.69335938 3.72021484 C-50.38152432 2.17004463 -63.95398922 4.7037708 -77.69335938 14.72021484 Z " fill="#000000" transform="translate(299.693359375,101.27978515625)"/>
<path d="M0 0 C2.73115015 1.40276973 4.63664079 3.18830022 6.8203125 5.34375 C7.63113281 6.12363281 8.44195312 6.90351563 9.27734375 7.70703125 C11.0078125 10.03125 11.0078125 10.03125 11.0390625 12.0234375 C9.63629277 14.75458765 7.85076228 16.66007829 5.6953125 18.84375 C4.91542969 19.65457031 4.13554687 20.46539062 3.33203125 21.30078125 C1.0078125 23.03125 1.0078125 23.03125 -0.984375 23.0625 C-3.71552515 21.65973027 -5.62101579 19.87419978 -7.8046875 17.71875 C-8.61550781 16.93886719 -9.42632812 16.15898437 -10.26171875 15.35546875 C-11.9921875 13.03125 -11.9921875 13.03125 -12.0234375 11.0390625 C-10.62066777 8.30791235 -8.83513728 6.40242171 -6.6796875 4.21875 C-5.50986328 3.00251953 -5.50986328 3.00251953 -4.31640625 1.76171875 C-1.9921875 0.03125 -1.9921875 0.03125 0 0 Z " fill="#000000" transform="translate(329.9921875,221.96875)"/>
<path d="M0 0 C2.73115015 1.40276973 4.63664079 3.18830022 6.8203125 5.34375 C7.63113281 6.12363281 8.44195312 6.90351563 9.27734375 7.70703125 C11.0078125 10.03125 11.0078125 10.03125 11.0390625 12.0234375 C9.63629277 14.75458765 7.85076228 16.66007829 5.6953125 18.84375 C4.91542969 19.65457031 4.13554687 20.46539062 3.33203125 21.30078125 C1.0078125 23.03125 1.0078125 23.03125 -0.984375 23.0625 C-3.71552515 21.65973027 -5.62101579 19.87419978 -7.8046875 17.71875 C-8.61550781 16.93886719 -9.42632812 16.15898437 -10.26171875 15.35546875 C-11.9921875 13.03125 -11.9921875 13.03125 -12.0234375 11.0390625 C-10.62066777 8.30791235 -8.83513728 6.40242171 -6.6796875 4.21875 C-5.50986328 3.00251953 -5.50986328 3.00251953 -4.31640625 1.76171875 C-1.9921875 0.03125 -1.9921875 0.03125 0 0 Z " fill="#000000" transform="translate(182.9921875,221.96875)"/>
<path d="M0 0 C2.73115015 1.40276973 4.63664079 3.18830022 6.8203125 5.34375 C7.63113281 6.12363281 8.44195312 6.90351562 9.27734375 7.70703125 C11.0078125 10.03125 11.0078125 10.03125 11.0390625 12.0234375 C9.63629277 14.75458765 7.85076228 16.66007829 5.6953125 18.84375 C4.91542969 19.65457031 4.13554687 20.46539062 3.33203125 21.30078125 C1.0078125 23.03125 1.0078125 23.03125 -0.984375 23.0625 C-3.71552515 21.65973027 -5.62101579 19.87419978 -7.8046875 17.71875 C-8.61550781 16.93886719 -9.42632812 16.15898438 -10.26171875 15.35546875 C-11.9921875 13.03125 -11.9921875 13.03125 -12.0234375 11.0390625 C-10.62066777 8.30791235 -8.83513728 6.40242171 -6.6796875 4.21875 C-5.50986328 3.00251953 -5.50986328 3.00251953 -4.31640625 1.76171875 C-1.9921875 0.03125 -1.9921875 0.03125 0 0 Z " fill="#000000" transform="translate(329.9921875,74.96875)"/>
<path d="M0 0 C2.73115015 1.40276973 4.63664079 3.18830022 6.8203125 5.34375 C7.63113281 6.12363281 8.44195312 6.90351562 9.27734375 7.70703125 C11.0078125 10.03125 11.0078125 10.03125 11.0390625 12.0234375 C9.63629277 14.75458765 7.85076228 16.66007829 5.6953125 18.84375 C4.91542969 19.65457031 4.13554687 20.46539062 3.33203125 21.30078125 C1.0078125 23.03125 1.0078125 23.03125 -0.984375 23.0625 C-3.71552515 21.65973027 -5.62101579 19.87419978 -7.8046875 17.71875 C-8.61550781 16.93886719 -9.42632812 16.15898438 -10.26171875 15.35546875 C-11.9921875 13.03125 -11.9921875 13.03125 -12.0234375 11.0390625 C-10.62066777 8.30791235 -8.83513728 6.40242171 -6.6796875 4.21875 C-5.50986328 3.00251953 -5.50986328 3.00251953 -4.31640625 1.76171875 C-1.9921875 0.03125 -1.9921875 0.03125 0 0 Z " fill="#000000" transform="translate(182.9921875,74.96875)"/>
<path d="M0 0 C5.28 0 10.56 0 16 0 C16 5.28 16 10.56 16 16 C10.72 16 5.44 16 0 16 C0 10.72 0 5.44 0 0 Z " fill="#000000" transform="translate(248,376)"/>
<path d="M0 0 C5.28 0 10.56 0 16 0 C16 5.28 16 10.56 16 16 C10.72 16 5.44 16 0 16 C0 10.72 0 5.44 0 0 Z " fill="#000000" transform="translate(248,256)"/>
<path d="M0 0 C5.28 0 10.56 0 16 0 C16 5.28 16 10.56 16 16 C10.72 16 5.44 16 0 16 C0 10.72 0 5.44 0 0 Z " fill="#000000" transform="translate(352,152)"/>
<path d="M0 0 C5.28 0 10.56 0 16 0 C16 5.28 16 10.56 16 16 C10.72 16 5.44 16 0 16 C0 10.72 0 5.44 0 0 Z " fill="#000000" transform="translate(144,152)"/>
<path d="M0 0 C5.28 0 10.56 0 16 0 C16 5.28 16 10.56 16 16 C10.72 16 5.44 16 0 16 C0 10.72 0 5.44 0 0 Z " fill="#000000" transform="translate(248,48)"/>
</svg>
