<?xml version="1.0" encoding="UTF-8"?>
<svg version="1.1" xmlns="http://www.w3.org/2000/svg" width="512" height="512">
<path d="M0 0 C5.50325133 4.06847509 10.80026177 9.73054057 12.1875 16.6171875 C13.17227064 26.80956362 11.87019444 33.83009624 6.4375 42.3671875 C2.65168519 46.15300231 -1.73293144 48.92399798 -6.8125 50.6171875 C-7.1425 52.2671875 -7.4725 53.9171875 -7.8125 55.6171875 C-6.66136719 55.58238281 -5.51023437 55.54757813 -4.32421875 55.51171875 C0.09567639 55.51657685 4.09786861 56.24472221 8.375 57.3046875 C9.11548584 57.48620361 9.85597168 57.66771973 10.61889648 57.85473633 C38.28097565 64.87988422 61.3328086 81.62319585 76.15625 106.08984375 C84.52064464 120.38812096 90.47524404 136.92803322 90.1875 153.6171875 C92.5727733 153.74534115 92.5727733 153.74534115 95.1875 152.6171875 C96.4213625 150.71071403 97.30208488 148.75098219 98.23046875 146.6796875 C101.00876207 140.69218189 105.59953406 137.35491317 111.4296875 134.53125 C118.63631926 132.14264967 127.77969467 132.46570028 134.6875 135.6171875 C140.71756583 139.16900664 146.3103482 144.75474827 148.74609375 151.44921875 C150.45170331 159.82632764 150.1488606 167.96850884 145.8046875 175.4296875 C141.73621241 180.93293883 136.07414693 186.22994927 129.1875 187.6171875 C118.99512388 188.60195814 111.97459126 187.29988194 103.4375 181.8671875 C99.65168519 178.08137269 96.88068952 173.69675606 95.1875 168.6171875 C93.5375 168.2871875 91.8875 167.9571875 90.1875 167.6171875 C90.22230469 168.76832031 90.25710938 169.91945313 90.29296875 171.10546875 C90.28811047 175.52553399 89.55940156 179.52731021 88.5 183.8046875 C88.22990112 184.91215332 88.22990112 184.91215332 87.9543457 186.04199219 C80.90259182 213.91163206 64.12612802 236.08675527 40.1875 251.6171875 C38.20939265 252.65982422 36.21656953 253.67757223 34.1875 254.6171875 C34.34758545 255.12910645 34.5076709 255.64102539 34.67260742 256.16845703 C35.77656336 261.41866001 35.45370583 266.91009668 35.48266602 272.26123047 C35.49419494 273.74505136 35.51466158 275.22883049 35.54418945 276.71240234 C35.5870095 278.86584402 35.60305154 281.0180597 35.61328125 283.171875 C35.63515503 285.09749268 35.63515503 285.09749268 35.6574707 287.06201172 C34.9699109 292.26317843 32.56758514 295.27440195 28.875 298.8671875 C24.45682238 301.74414037 20.41948396 302.6171875 15.1875 302.6171875 C15.27 303.6278125 15.3525 304.6384375 15.4375 305.6796875 C15.14319088 310.31505622 14.08683507 313.03304016 11.1875 316.6171875 C3.80431934 322.46220553 -3.31980586 321.83336091 -12.34667969 321.85742188 C-14.54140607 321.86709453 -16.73518189 321.89812607 -18.9296875 321.9296875 C-35.08252609 322.05404551 -35.08252609 322.05404551 -40.3503418 317.20019531 C-44.57198535 312.42553339 -44.9293339 308.80938407 -44.8125 302.6171875 C-45.39257812 302.59140625 -45.97265625 302.565625 -46.5703125 302.5390625 C-53.4368812 302.04049976 -57.46573079 300.28108769 -62.125 294.9921875 C-64.99887781 290.94747058 -64.94101041 288.53878665 -64.9453125 283.5625 C-64.94626923 282.86454315 -64.94722595 282.1665863 -64.94821167 281.44747925 C-64.94889255 279.9697053 -64.94704467 278.49192837 -64.94287109 277.01416016 C-64.93753755 274.75806906 -64.94281082 272.50217851 -64.94921875 270.24609375 C-64.94855764 268.8098954 -64.94727579 267.37369717 -64.9453125 265.9375 C-64.94418457 264.63055176 -64.94305664 263.32360352 -64.94189453 261.97705078 C-64.83868716 259.29716427 -64.62011463 257.15070748 -63.8125 254.6171875 C-64.88564453 254.05064453 -64.88564453 254.05064453 -65.98046875 253.47265625 C-74.52689652 248.75166704 -81.58502549 243.1336032 -88.8125 236.6171875 C-89.48023438 236.03324219 -90.14796875 235.44929687 -90.8359375 234.84765625 C-106.63962248 220.19400469 -119.0054986 194.92066105 -119.91015625 173.28125 C-119.87760417 171.39322917 -119.84505208 169.50520833 -119.8125 167.6171875 C-122.1977733 167.48903385 -122.1977733 167.48903385 -124.8125 168.6171875 C-126.04689519 170.52448403 -126.93056249 172.48990622 -127.8671875 174.55859375 C-130.81552322 180.97914302 -135.6701478 183.67609805 -141.8125 186.6171875 C-148.91373519 188.9842659 -157.43451758 188.74182406 -164.25 185.6171875 C-170.3229308 182.08130345 -175.92411031 176.51051325 -178.37109375 169.78515625 C-180.07670331 161.40804736 -179.7738606 153.26586616 -175.4296875 145.8046875 C-171.36121241 140.30143617 -165.69914693 135.00442573 -158.8125 133.6171875 C-148.62012388 132.63241686 -141.59959126 133.93449306 -133.0625 139.3671875 C-129.27668519 143.15300231 -126.50568952 147.53761894 -124.8125 152.6171875 C-123.1625 152.9471875 -121.5125 153.2771875 -119.8125 153.6171875 C-119.84730469 152.46605469 -119.88210937 151.31492188 -119.91796875 150.12890625 C-119.91311065 145.70901111 -119.18496529 141.70681889 -118.125 137.4296875 C-117.94348389 136.68920166 -117.76196777 135.94871582 -117.57495117 135.18579102 C-110.54980328 107.52371185 -93.80649165 84.4718789 -69.33984375 69.6484375 C-55.04156654 61.28404286 -38.50165428 55.32944346 -21.8125 55.6171875 C-21.68434635 53.2319142 -21.68434635 53.2319142 -22.8125 50.6171875 C-24.71897347 49.383325 -26.67870531 48.50260262 -28.75 47.57421875 C-34.84578417 44.74568253 -38.47909543 40.02264521 -40.8984375 33.84375 C-42.99834494 26.43125621 -43.03045034 18.25484431 -39.8125 11.1796875 C-36.27661595 5.1067567 -30.70582575 -0.49442281 -23.98046875 -2.94140625 C-15.60335986 -4.64701581 -7.46117866 -4.3441731 0 0 Z M-25.625 16.8046875 C-27.17805768 20.482982 -27.48461203 23.7219928 -26.8125 27.6171875 C-24.91446882 31.6410136 -23.35295379 33.28460055 -19.5625 35.6171875 C-15.03104245 36.82557618 -12.02992601 36.6708906 -7.8125 34.6171875 C-4.34795656 31.06380961 -2.88731624 28.75813516 -2.5625 23.8046875 C-2.62537367 19.94843561 -3.29459839 17.65603427 -5.8125 14.6171875 C-9.37586997 11.66468095 -12.39635262 11.13753328 -16.88671875 11.33203125 C-20.90939007 11.92768035 -23.09174909 13.74731571 -25.625 16.8046875 Z M-35.4375 72.3046875 C-36.49191284 72.57587402 -36.49191284 72.57587402 -37.56762695 72.85253906 C-54.65990267 77.41566168 -68.39730357 86.23776973 -80.8125 98.6171875 C-81.54210937 99.32359375 -82.27171875 100.03 -83.0234375 100.7578125 C-91.68133119 109.7236945 -97.29753536 121.17948356 -101.3125 132.8671875 C-101.55564941 133.56255615 -101.79879883 134.2579248 -102.04931641 134.97436523 C-104.10254125 141.40286096 -104.21951602 146.50137971 -104.8125 153.6171875 C-96.5625 153.6171875 -88.3125 153.6171875 -79.8125 153.6171875 C-78.801875 151.1834375 -77.79125 148.7496875 -76.75 146.2421875 C-73.83105702 139.42602009 -70.43651828 133.44840869 -65.8125 127.6171875 C-65.19632813 126.79476562 -64.58015625 125.97234375 -63.9453125 125.125 C-53.08828109 112.35903999 -37.45632065 107.78887301 -21.8125 103.6171875 C-21.8125 92.7271875 -21.8125 81.8371875 -21.8125 70.6171875 C-26.76020416 70.6171875 -30.73575686 71.09243494 -35.4375 72.3046875 Z M-7.8125 70.6171875 C-7.8125 81.5071875 -7.8125 92.3971875 -7.8125 103.6171875 C-5.110625 104.2978125 -2.40875 104.9784375 0.375 105.6796875 C18.13621827 110.4656926 32.2632406 119.90535808 42.1875 135.6171875 C45.25163859 141.46988905 47.73583892 147.4880348 50.1875 153.6171875 C58.4375 153.6171875 66.6875 153.6171875 75.1875 153.6171875 C74.32774163 142.83074068 74.32774163 142.83074068 71.625 132.7421875 C71.36251465 131.97970703 71.1000293 131.21722656 70.82958984 130.43164062 C62.09751534 106.16630534 44.21254044 88.35195844 21.21484375 77.4140625 C11.34591661 72.90282092 3.18304574 71.53348298 -7.8125 70.6171875 Z M-54.8125 136.6171875 C-64.6617975 149.35334806 -67.69346612 162.80873997 -66.8125 178.6171875 C-65.24381928 188.20209256 -59.82872038 196.35564106 -54.8125 204.4921875 C-48.46814766 215.07164415 -44.72148759 225.45436182 -42.31152344 237.46826172 C-41.59642002 240.54768455 -40.68099329 243.57746098 -39.8125 246.6171875 C-33.8725 246.6171875 -27.9325 246.6171875 -21.8125 246.6171875 C-21.60881707 238.8981269 -21.44386146 231.18007237 -21.34619045 223.45897484 C-21.2992998 219.87316105 -21.23576312 216.28928699 -21.13354492 212.70458984 C-21.03543131 209.2419916 -20.98188124 205.78125267 -20.95860481 202.31737137 C-20.93398523 200.35926116 -20.86376992 198.40189545 -20.79283142 196.44491577 C-20.62666617 189.92662158 -20.62666617 189.92662158 -23.73991394 184.51426697 C-26.04142864 182.9565516 -28.28413035 181.76166233 -30.8125 180.6171875 C-32.10904462 179.88452825 -33.40072025 179.14306067 -34.68359375 178.38671875 C-36.4837837 177.3918255 -38.28950285 176.40837181 -40.09960938 175.43164062 C-43.21062944 173.70634504 -44.79802006 172.63890741 -46.8125 169.6171875 C-47.13412076 166.5296282 -47.29974515 164.47703189 -45.75 161.7421875 C-42.75533313 160.00334867 -40.12716855 159.96486253 -36.8125 160.6171875 C-32.12872019 162.84506157 -27.824407 165.73377265 -23.46289062 168.52734375 C-18.43050909 171.79788055 -18.43050909 171.79788055 -12.6796875 172.3046875 C-8.17396356 169.65281728 -3.71668787 166.95653272 0.64648438 164.07421875 C6.10246052 160.68092805 9.77601964 160.12350984 16.1875 160.6171875 C17.45703125 167.16015625 17.45703125 167.16015625 17.1875 169.6171875 C13.42427051 174.48634565 8.33672386 176.98938465 3 179.8046875 C1.37990673 180.67018186 -0.23865928 181.53854291 -1.85546875 182.41015625 C-2.56727295 182.7868042 -3.27907715 183.16345215 -4.01245117 183.55151367 C-5.97161938 184.61081333 -5.97161938 184.61081333 -7.8125 186.6171875 C-8.10573962 189.24756251 -8.10573962 189.24756251 -8.03955078 192.35205078 C-8.03932419 194.15369186 -8.03932419 194.15369186 -8.03909302 195.99172974 C-8.02877045 197.29383392 -8.01844788 198.59593811 -8.0078125 199.9375 C-8.00408276 201.27985423 -8.00123561 202.62221117 -7.99923706 203.96456909 C-7.99159744 207.4992015 -7.9719463 211.03366978 -7.9498291 214.5682373 C-7.92937765 218.1743752 -7.92023685 221.78053959 -7.91015625 225.38671875 C-7.88870058 232.46361526 -7.85351586 239.54037341 -7.8125 246.6171875 C-1.8725 246.6171875 4.0675 246.6171875 10.1875 246.6171875 C11.7733404 241.15580553 11.7733404 241.15580553 13.046875 235.671875 C15.76695571 222.7649156 20.60954815 212.07973157 27.37890625 200.7421875 C29.38688388 197.27267971 31.25236352 193.75535269 33.0625 190.1796875 C33.92488281 188.48005859 33.92488281 188.48005859 34.8046875 186.74609375 C39.5024807 176.11634133 38.0726254 162.30128234 34.1875 151.6171875 C28.40638812 138.16498486 18.68073396 128.14584637 5.21875 122.3359375 C-16.69398015 114.0892111 -38.91647275 119.39197026 -54.8125 136.6171875 Z M-162.625 153.8046875 C-164.19898044 157.53253591 -164.40326626 160.62749207 -163.8125 164.6171875 C-162.05336879 168.78355089 -159.97886339 170.85805629 -155.8125 172.6171875 C-150.88335861 173.16486988 -148.82325251 173.15999903 -144.4375 170.8046875 C-141.68932486 168.51454155 -140.00368477 166.92880395 -139.4765625 163.3125 C-139.38214178 157.69079245 -139.38214178 157.69079245 -141.625 152.6171875 C-145.76827182 148.82905327 -148.18904077 148.22680544 -153.59375 148.3671875 C-157.82141618 148.84354425 -159.97706819 150.60890773 -162.625 153.8046875 Z M111.1875 153.6171875 C109.33639417 157.31939916 109.72295205 161.57625667 110.1875 165.6171875 C112.22914557 169.11715133 114.27839936 171.42274008 118.1875 172.6171875 C123.49987628 173.03880467 126.92522763 173.14878461 131.1875 169.6171875 C134.14000655 166.05381753 134.66715422 163.03333488 134.47265625 158.54296875 C133.88114437 154.54823786 132.06144645 152.36261241 129.0625 149.8046875 C121.7286967 146.77550787 116.556307 147.97994015 111.1875 153.6171875 Z M-104.8125 167.6171875 C-104.0672625 187.49018753 -96.18356445 205.90181496 -82.8125 220.6171875 C-82.00167969 221.52082031 -81.19085938 222.42445313 -80.35546875 223.35546875 C-73.61199538 230.49387467 -66.31713409 235.76595256 -57.8125 240.6171875 C-57.4825 240.6171875 -57.1525 240.6171875 -56.8125 240.6171875 C-57.62748524 229.8186331 -61.92441092 221.13197604 -67.23657227 211.88623047 C-79.84577439 189.93985074 -79.84577439 189.93985074 -80.8125 179.6171875 C-80.91949219 178.53695312 -81.02648437 177.45671875 -81.13671875 176.34375 C-81.39750328 173.43786524 -81.60944267 170.52767587 -81.8125 167.6171875 C-89.4025 167.6171875 -96.9925 167.6171875 -104.8125 167.6171875 Z M52.1875 167.6171875 C51.94 170.3603125 51.6925 173.1034375 51.4375 175.9296875 C50.03252425 189.34191316 44.98152297 199.51917572 38.1640625 211.03515625 C32.58531439 220.5043642 28.0264336 229.50131726 27.1875 240.6171875 C36.28240461 236.37409224 43.18230898 230.63958426 50.1875 223.6171875 C51.00476563 222.81152344 51.82203125 222.00585938 52.6640625 221.17578125 C65.92086221 207.34953138 75.1875 186.8478146 75.1875 167.6171875 C67.5975 167.6171875 60.0075 167.6171875 52.1875 167.6171875 Z M-49.8125 262.6171875 C-49.89976223 264.39789996 -49.91949041 266.1820189 -49.91015625 267.96484375 C-49.90693359 269.04443359 -49.90371094 270.12402344 -49.90039062 271.23632812 C-49.89201172 272.37263672 -49.88363281 273.50894531 -49.875 274.6796875 C-49.87048828 275.81986328 -49.86597656 276.96003906 -49.86132812 278.13476562 C-49.84949747 280.96229101 -49.8330141 283.7897139 -49.8125 286.6171875 C-46.01497521 288.51594989 -41.28701886 287.91733119 -37.09765625 288.04296875 C-33.8125 288.6171875 -33.8125 288.6171875 -31.91015625 290.2421875 C-30.48482779 293.3261722 -30.33163865 295.91742931 -30.1875 299.3046875 C-30.35774108 303.27889209 -30.35774108 303.27889209 -28.8125 306.6171875 C-26.7519469 306.71712282 -24.6879741 306.74799656 -22.625 306.75 C-21.36945313 306.75128906 -20.11390625 306.75257813 -18.8203125 306.75390625 C-17.83466309 306.75076416 -17.83466309 306.75076416 -16.82910156 306.74755859 C-14.82088665 306.74220984 -12.81289541 306.74750441 -10.8046875 306.75390625 C-9.54914063 306.75261719 -8.29359375 306.75132812 -7 306.75 C-5.83855469 306.74887207 -4.67710937 306.74774414 -3.48046875 306.74658203 C-0.89186716 306.92056224 -0.89186716 306.92056224 0.1875 305.6171875 C0.43341214 302.35202069 0.57173106 299.08775748 0.7109375 295.81640625 C1.22675441 292.35366817 1.52787785 290.88906186 4.1875 288.6171875 C7.47265625 288.04296875 7.47265625 288.04296875 11.25 287.9296875 C15.88365191 287.94526844 15.88365191 287.94526844 20.1875 286.6171875 C20.21636984 282.63803591 20.23425406 278.65891097 20.25 274.6796875 C20.26256836 272.97522461 20.26256836 272.97522461 20.27539062 271.23632812 C20.28022461 269.61694336 20.28022461 269.61694336 20.28515625 267.96484375 C20.29301147 266.46449585 20.29301147 266.46449585 20.30102539 264.93383789 C20.44931095 262.65511522 20.44931095 262.65511522 19.1875 261.6171875 C17.07612099 261.51770557 14.96137714 261.48919112 12.84765625 261.48779297 C12.18587372 261.48604065 11.52409119 261.48428833 10.84225464 261.48248291 C8.6448101 261.47806533 6.44744542 261.48100203 4.25 261.484375 C2.72924789 261.48370193 1.20849588 261.48273189 -0.31225586 261.48147583 C-3.50342836 261.47999899 -6.69457292 261.48215298 -9.88574219 261.48681641 C-13.9851453 261.4925137 -18.08448296 261.48923462 -22.18388367 261.48324394 C-25.32532244 261.47963796 -28.46674558 261.48077708 -31.60818481 261.48337173 C-33.12012744 261.4840409 -34.63207146 261.48321293 -36.14401245 261.48089218 C-38.25359887 261.47836505 -40.36307787 261.48220706 -42.47265625 261.48779297 C-43.67543213 261.48858856 -44.87820801 261.48938416 -46.11743164 261.49020386 C-48.72997185 261.31031157 -48.72997185 261.31031157 -49.8125 262.6171875 Z " fill="#F0791E" transform="translate(270.8125,95.3828125)"/>
<path d="M0 0 C1.46225761 -0.01913956 1.46225761 -0.01913956 2.95405579 -0.03866577 C3.99684189 -0.04089142 5.03962799 -0.04311707 6.11401367 -0.04541016 C7.73964485 -0.05539536 7.73964485 -0.05539536 9.39811707 -0.06558228 C11.68857123 -0.07569547 13.97905478 -0.08039971 16.26953125 -0.08007812 C19.75920654 -0.08444416 23.24760946 -0.12075991 26.73706055 -0.15869141 C28.96687395 -0.16456137 31.19669334 -0.16852956 33.42651367 -0.17041016 C34.98158379 -0.19196671 34.98158379 -0.19196671 36.56806946 -0.21395874 C43.96615564 -0.16771006 49.19773995 1.10129336 54.99291992 6.00146484 C55.43893555 6.55060547 55.88495117 7.09974609 56.34448242 7.66552734 C57.03670898 8.48150391 57.03670898 8.48150391 57.74291992 9.31396484 C60.70131016 14.08130708 61.25931888 19.0496884 61.78198242 24.54052734 C62.95893564 34.48371082 66.38514036 41.66130063 73.71557617 48.53271484 C83.40652476 56.09064702 94.04065653 57.54694983 105.96948242 56.29052734 C114.31072165 54.28589189 120.35061807 49.80564345 126.69213867 44.18115234 C130.33903007 41.15354439 133.55248248 41.05587552 138.15698242 40.91552734 C139.24366211 40.86654297 140.3303418 40.81755859 141.44995117 40.76708984 C149.33564426 41.93987883 155.00751101 47.87766595 160.42651367 53.34912109 C161.09615646 54.01589371 161.76579926 54.68266632 162.45573425 55.36964417 C163.85845321 56.77033532 165.25744597 58.17476724 166.65283203 59.58276367 C168.78311569 61.72916919 170.92901241 63.85902396 173.0769043 65.98779297 C174.44440408 67.35727442 175.81097337 68.72768579 177.17651367 70.09912109 C177.81402054 70.73055527 178.4515274 71.36198944 179.10835266 72.01255798 C184.38598976 77.37413098 187.39767311 81.97336674 187.40698242 89.72802734 C187.21657553 96.73341435 185.59636456 100.0663495 181.28588867 105.35693359 C172.83874228 115.80232967 170.70891598 125.03467604 171.96948242 138.29052734 C173.79646791 147.95782142 179.4475763 154.95043139 187.08666992 160.95458984 C194.54687191 165.91838183 202.59374591 166.6904053 211.34838867 167.53271484 C218.1435206 168.95478129 222.01795871 172.91206452 225.96948242 178.29052734 C227.6036089 181.75104485 228.22591433 184.50607183 228.26000977 188.32104492 C228.27276947 189.29588333 228.28552917 190.27072174 228.29867554 191.27510071 C228.30201401 192.83927986 228.30201401 192.83927986 228.30541992 194.43505859 C228.31207672 195.51881271 228.31873352 196.60256683 228.32559204 197.71916199 C228.33570524 200.00961615 228.34040947 202.3000997 228.34008789 204.59057617 C228.34445393 208.08025146 228.38076968 211.56865438 228.41870117 215.05810547 C228.42457113 217.28791887 228.42853932 219.51773826 228.43041992 221.74755859 C228.44479095 222.784272 228.45916199 223.82098541 228.47396851 224.88911438 C228.42771982 232.28720056 227.15871641 237.51878487 222.25854492 243.31396484 C221.43483398 243.98298828 221.43483398 243.98298828 220.59448242 244.66552734 C220.05049805 245.12701172 219.50651367 245.58849609 218.94604492 246.06396484 C214.17870269 249.02235508 209.21032136 249.5803638 203.71948242 250.10302734 C193.77629894 251.27998057 186.59870913 254.70618528 179.72729492 262.03662109 C172.07831828 271.84430892 170.95861026 282.2669512 171.96948242 294.29052734 C173.52171709 302.34204676 178.77391763 308.31086873 183.82495117 314.50537109 C186.90386205 318.50402948 187.1940673 321.54325416 187.34448242 326.47802734 C187.3934668 327.56470703 187.44245117 328.65138672 187.49291992 329.77099609 C186.32013094 337.65668918 180.38234382 343.32855593 174.91088867 348.74755859 C174.24411606 349.41720139 173.57734344 350.08684418 172.8903656 350.77677917 C171.48967445 352.17949814 170.08524252 353.5784909 168.67724609 354.97387695 C166.53084057 357.10416061 164.4009858 359.25005733 162.2722168 361.39794922 C160.90273535 362.765449 159.53232397 364.13201829 158.16088867 365.49755859 C157.5294545 366.13506546 156.89802032 366.77257233 156.24745178 367.42939758 C150.88587878 372.70703468 146.28664303 375.71871803 138.53198242 375.72802734 C131.52659542 375.53762045 128.19366027 373.91740948 122.90307617 369.60693359 C114.33690693 362.67950978 105.50742822 358.5874024 94.31323242 359.50927734 C83.43780356 361.09782313 74.84939043 365.65992846 67.96948242 374.29052734 C63.0741063 381.04716626 62.03210699 388.40996088 61.13232422 396.5144043 C60.34009099 402.99215396 58.2504662 407.81948229 53.03198242 412.04052734 C48.72521757 415.20468112 45.27544021 416.53336118 39.93896484 416.58105469 C38.96412643 416.59381439 37.98928802 416.6065741 36.98490906 416.61972046 C35.94212296 416.62194611 34.89933685 416.62417175 33.82495117 416.62646484 C32.74119705 416.63312164 31.65744293 416.63977844 30.54084778 416.64663696 C28.25039361 416.65675016 25.95991006 416.6614544 23.66943359 416.66113281 C20.17975831 416.66549885 16.69135538 416.7018146 13.2019043 416.73974609 C10.97209089 416.74561605 8.74227151 416.74958425 6.51245117 416.75146484 C5.47573776 416.76583588 4.43902435 416.78020691 3.37089539 416.79501343 C-4.02719079 416.74876474 -9.2587751 415.47976133 -15.05395508 410.57958984 C-15.72297852 409.75587891 -15.72297852 409.75587891 -16.40551758 408.91552734 C-16.86700195 408.37154297 -17.32848633 407.82755859 -17.80395508 407.26708984 C-20.76234532 402.49974761 -21.32035404 397.53136629 -21.84301758 392.04052734 C-23.13805376 381.09975063 -27.34578023 373.16785903 -36.03051758 366.29052734 C-44.03959588 360.81649644 -53.59735643 358.60181909 -63.24145508 359.63427734 C-72.77423162 361.69276894 -80.4946045 366.47926719 -87.55786133 373.09130859 C-90.72877388 375.67345754 -94.30092641 375.54613183 -98.21801758 375.66552734 C-99.30469727 375.71451172 -100.39137695 375.76349609 -101.51098633 375.81396484 C-109.39667941 374.64117586 -115.06854617 368.70338874 -120.48754883 363.23193359 C-121.15719162 362.56516098 -121.82683441 361.89838837 -122.51676941 361.21141052 C-123.91948837 359.81071937 -125.31848113 358.40628744 -126.71386719 356.99829102 C-128.84415085 354.8518855 -130.99004757 352.72203072 -133.13793945 350.59326172 C-134.50543924 349.22378027 -135.87200852 347.8533689 -137.23754883 346.48193359 C-137.87505569 345.85049942 -138.51256256 345.21906525 -139.16938782 344.5684967 C-144.44702492 339.20692371 -147.45870826 334.60768795 -147.46801758 326.85302734 C-147.27761068 319.84764034 -145.65739972 316.51470519 -141.34692383 311.22412109 C-132.89977744 300.77872502 -130.76995114 291.54637864 -132.03051758 278.29052734 C-133.85750307 268.62323326 -139.50861146 261.6306233 -147.14770508 255.62646484 C-154.60790707 250.66267286 -162.65478107 249.89064938 -171.40942383 249.04833984 C-178.20455576 247.6262734 -182.07899387 243.66899017 -186.03051758 238.29052734 C-187.66464406 234.83000984 -188.28694949 232.07498286 -188.32104492 228.26000977 C-188.33380463 227.28517136 -188.34656433 226.31033295 -188.35971069 225.30595398 C-188.36193634 224.26316788 -188.36416199 223.22038177 -188.36645508 222.14599609 C-188.37311188 221.06224197 -188.37976868 219.97848785 -188.3866272 218.8618927 C-188.3967404 216.57143854 -188.40144463 214.28095498 -188.40112305 211.99047852 C-188.40548908 208.50080323 -188.44180483 205.0124003 -188.47973633 201.52294922 C-188.48560629 199.29313582 -188.48957448 197.06331643 -188.49145508 194.83349609 C-188.51301163 193.27842598 -188.51301163 193.27842598 -188.53500366 191.69194031 C-188.48875498 184.29385413 -187.21975156 179.06226982 -182.31958008 173.26708984 C-181.77043945 172.82107422 -181.22129883 172.37505859 -180.65551758 171.91552734 C-179.83954102 171.22330078 -179.83954102 171.22330078 -179.00708008 170.51708984 C-174.23973785 167.55869961 -169.27135652 167.00069088 -163.78051758 166.47802734 C-153.8373341 165.30107412 -146.65974429 161.8748694 -139.78833008 154.54443359 C-132.13935344 144.73674577 -131.01964542 134.31410348 -132.03051758 122.29052734 C-133.58275225 114.23900793 -138.83495279 108.27018596 -143.88598633 102.07568359 C-146.9648972 98.07702521 -147.25510245 95.03780053 -147.40551758 90.10302734 C-147.45450195 89.01634766 -147.50348633 87.92966797 -147.55395508 86.81005859 C-146.3811661 78.92436551 -140.44337897 73.25249876 -134.97192383 67.83349609 C-134.30515121 67.1638533 -133.6383786 66.49421051 -132.95140076 65.80427551 C-131.5507096 64.40155655 -130.14627768 63.00256379 -128.73828125 61.60717773 C-126.59187573 59.47689407 -124.46202096 57.33099736 -122.33325195 55.18310547 C-120.9637705 53.81560568 -119.59335913 52.4490364 -118.22192383 51.08349609 C-117.59048965 50.44598923 -116.95905548 49.80848236 -116.30848694 49.1516571 C-110.94691394 43.87402 -106.34767818 40.86233666 -98.59301758 40.85302734 C-91.58763057 41.04343424 -88.25469542 42.6636452 -82.96411133 46.97412109 C-72.51871526 55.42126748 -63.28636888 57.55109378 -50.03051758 56.29052734 C-40.3632235 54.46354185 -33.37061353 48.81243347 -27.36645508 41.17333984 C-22.40266309 33.71313786 -21.63063962 25.66626385 -20.78833008 16.91162109 C-19.36626363 10.11648916 -15.4089804 6.24205105 -10.03051758 2.29052734 C-6.57000007 0.65640087 -3.8149731 0.03409544 0 0 Z M-4.60473633 17.1184082 C-6.60476785 20.16537403 -6.73142504 22.73774628 -7.03051758 26.35302734 C-8.56292838 40.78424829 -14.34446239 52.04730296 -25.50317383 61.47021484 C-37.60871359 70.18919712 -51.05247904 73.28048832 -65.78051758 71.85302734 C-75.66595894 70.24019729 -85.7804799 65.58132261 -93.21801758 58.79052734 C-95.70797516 56.19162418 -95.70797516 56.19162418 -98.24975586 55.72583008 C-102.71786476 56.63318178 -105.18167649 59.6687389 -108.33520508 62.82568359 C-109.36026657 63.83289711 -109.36026657 63.83289711 -110.40603638 64.86045837 C-111.84618664 66.28406786 -113.27979714 67.71431914 -114.70727539 69.15063477 C-116.89622523 71.34371746 -119.11747988 73.49989517 -121.34301758 75.65576172 C-122.7383551 77.04361917 -124.13165569 78.43352818 -125.52270508 79.82568359 C-126.19026825 80.46764175 -126.85783142 81.10959991 -127.54562378 81.77101135 C-131.41572403 85.70791903 -131.41572403 85.70791903 -132.02587891 91.13354492 C-131.01610179 94.33624981 -130.25709823 95.66664868 -127.84301758 97.91552734 C-119.42798334 106.88463792 -116.19143981 118.61078442 -115.96801758 130.66162109 C-116.51266975 145.92890227 -122.20659713 158.98708641 -133.21801758 169.54052734 C-143.0296072 177.81173088 -153.87383954 181.35417461 -166.51489258 181.75146484 C-169.98561049 182.49519011 -170.93242613 183.40114634 -173.03051758 186.29052734 C-173.63643995 189.57864439 -173.59083317 192.82978049 -173.56176758 196.16552734 C-173.56559448 197.12700684 -173.56942139 198.08848633 -173.57336426 199.07910156 C-173.5760836 201.10987394 -173.56872087 203.14068134 -173.55200195 205.17138672 C-173.53059282 208.27960305 -173.55180304 211.3855079 -173.57739258 214.49365234 C-173.57474931 216.46761578 -173.56962434 218.44157778 -173.56176758 220.41552734 C-173.5698645 221.34478027 -173.57796143 222.2740332 -173.58630371 223.23144531 C-173.54644284 228.38858496 -173.54644284 228.38858496 -171.20263672 232.86474609 C-168.15567089 234.86477761 -165.58329864 234.9914348 -161.96801758 235.29052734 C-147.53679663 236.82293814 -136.27374196 242.60447215 -126.85083008 253.76318359 C-118.02098665 266.02264431 -114.73227515 280.19730143 -116.46801758 295.16552734 C-118.3041167 304.47092764 -123.09994247 314.46563829 -129.53051758 321.47802734 C-132.12942074 323.96798492 -132.12942074 323.96798492 -132.59521484 326.50976562 C-131.68786314 330.97787453 -128.65230602 333.44168626 -125.49536133 336.59521484 C-124.82388565 337.27858917 -124.15240997 337.9619635 -123.46058655 338.66604614 C-122.03697707 340.1061964 -120.60672578 341.53980691 -119.17041016 342.96728516 C-116.97732747 345.156235 -114.82114976 347.37748964 -112.6652832 349.60302734 C-111.27742575 350.99836486 -109.88751675 352.39166545 -108.49536133 353.78271484 C-107.85340317 354.45027802 -107.21144501 355.11784119 -106.55003357 355.80563354 C-102.61312589 359.6757338 -102.61312589 359.6757338 -97.1875 360.28588867 C-93.98479511 359.27611156 -92.65439625 358.517108 -90.40551758 356.10302734 C-81.16448549 347.44957533 -69.1422916 344.36636851 -56.74536133 344.26318359 C-42.28483083 344.93536558 -28.63189694 350.50430962 -18.65551758 361.22412109 C-10.64577194 371.40959091 -6.81893361 382.00156174 -6.53442383 394.88037109 C-5.82144257 398.29052179 -4.86367064 399.22779075 -2.03051758 401.29052734 C1.25744682 401.89704601 4.50879337 401.85084243 7.84448242 401.82177734 C9.28670166 401.8275177 9.28670166 401.8275177 10.75805664 401.83337402 C12.78882902 401.83609337 14.81963642 401.82873064 16.8503418 401.81201172 C19.95855813 401.79060259 23.06446298 401.81181281 26.17260742 401.83740234 C28.14657086 401.83475907 30.12053285 401.82963411 32.09448242 401.82177734 C33.48836182 401.83392273 33.48836182 401.83392273 34.91040039 401.84631348 C40.06754004 401.80645261 40.06754004 401.80645261 44.54370117 399.46264648 C46.54373269 396.41568066 46.67038988 393.84330841 46.96948242 390.22802734 C48.50189322 375.79680639 54.28342723 364.53375173 65.44213867 355.11083984 C77.6307261 346.33204272 91.42689889 343.15947815 106.28198242 344.72802734 C115.87317854 346.44115715 125.93793986 351.18486749 133.15698242 357.79052734 C135.64694 360.3894305 135.64694 360.3894305 138.1887207 360.85522461 C142.6568296 359.94787291 145.12064134 356.91231579 148.27416992 353.75537109 C148.95754425 353.08389542 149.64091858 352.41241974 150.34500122 351.72059631 C151.78515148 350.29698683 153.21876199 348.86673555 154.64624023 347.43041992 C156.83519008 345.23733723 159.05644472 343.08115952 161.28198242 340.92529297 C162.67731994 339.53743551 164.07062053 338.14752651 165.46166992 336.75537109 C166.46301468 335.79243385 166.46301468 335.79243385 167.48458862 334.81004333 C171.35468888 330.87313566 171.35468888 330.87313566 171.96484375 325.44750977 C170.95506664 322.24480487 170.19606308 320.91440601 167.78198242 318.66552734 C159.36694818 309.69641677 156.13040465 297.97027027 155.90698242 285.91943359 C156.45163459 270.65215241 162.14556198 257.59396828 173.15698242 247.04052734 C182.96857205 238.7693238 193.81280438 235.22688008 206.45385742 234.82958984 C209.92457533 234.08586458 210.87139098 233.17990835 212.96948242 230.29052734 C213.57540479 227.0024103 213.52979802 223.75127419 213.50073242 220.41552734 C213.50647278 218.97330811 213.50647278 218.97330811 213.5123291 217.50195312 C213.51504844 215.47118074 213.50768571 213.44037335 213.4909668 211.40966797 C213.46955767 208.30145164 213.49076789 205.19554679 213.51635742 202.08740234 C213.51371415 200.11343891 213.50858918 198.13947691 213.50073242 196.16552734 C213.51287781 194.77164795 213.51287781 194.77164795 213.52526855 193.34960938 C213.48540769 188.19246973 213.48540769 188.19246973 211.14160156 183.71630859 C208.09463573 181.71627707 205.52226349 181.58961988 201.90698242 181.29052734 C187.47576147 179.75811655 176.2127068 173.97658253 166.78979492 162.81787109 C157.9599515 150.55841037 154.67123999 136.38375326 156.40698242 121.41552734 C158.24308154 112.11012705 163.03890731 102.11541639 169.46948242 95.10302734 C172.06838558 92.61306976 172.06838558 92.61306976 172.53417969 90.07128906 C171.62682799 85.60318016 168.59127086 83.13936843 165.43432617 79.98583984 C164.76285049 79.30246552 164.09137482 78.61909119 163.39955139 77.91500854 C161.97594191 76.47485829 160.54569063 75.04124778 159.109375 73.61376953 C156.91629231 71.42481969 154.7601146 69.20356504 152.60424805 66.97802734 C151.21639059 65.58268982 149.82648159 64.18938924 148.43432617 62.79833984 C147.79236801 62.13077667 147.15040985 61.4632135 146.48899841 60.77542114 C142.5541309 56.90743668 142.5541309 56.90743668 137.13305664 56.29296875 C133.90898699 57.30960315 132.46867726 58.14012186 130.15698242 60.54052734 C120.67947775 69.48538156 108.697988 72.14702672 95.96948242 72.29052734 C80.86021845 71.32724487 68.66323924 65.52828015 58.28198242 54.60302734 C50.25034748 44.98374363 46.89564777 34.12306109 46.50854492 21.80615234 C45.76481966 18.33543443 44.85886343 17.38861879 41.96948242 15.29052734 C38.68136538 14.68460497 35.43022927 14.73021175 32.09448242 14.75927734 C31.13300293 14.75545044 30.17152344 14.75162354 29.1809082 14.74768066 C27.15013582 14.74496132 25.11932843 14.75232405 23.08862305 14.76904297 C19.98040672 14.7904521 16.87450187 14.76924188 13.76635742 14.74365234 C11.79239399 14.74629562 9.81843199 14.75142058 7.84448242 14.75927734 C6.91522949 14.75118042 5.98597656 14.7430835 5.02856445 14.73474121 C-0.12857519 14.77460208 -0.12857519 14.77460208 -4.60473633 17.1184082 Z " fill="#F0781E" transform="translate(236.030517578125,47.70947265625)"/>
<path d="M0 0 C2.42561384 2.42561384 2.2932956 3.07289235 2.3046875 6.40234375 C2.17358184 12.40203969 0.80087039 17.82644648 -0.875 23.5625 C-1.34256714 25.18454346 -1.34256714 25.18454346 -1.81958008 26.83935547 C-14.13719487 68.22534382 -36.30741051 103.93434279 -66 135 C-66.70640625 135.74765625 -67.4128125 136.4953125 -68.140625 137.265625 C-73.37053517 142.66561355 -79.12443629 147.32384077 -85 152 C-86.05035332 152.86352114 -87.09980963 153.72813435 -88.1484375 154.59375 C-100.72717691 164.86362746 -114.54990442 173.59635552 -129 181 C-128.34773438 181.25394531 -127.69546875 181.50789062 -127.0234375 181.76953125 C-124.34041444 182.82611998 -121.67038101 183.91191938 -119 185 C-117.845 185.45375 -116.69 185.9075 -115.5 186.375 C-113 188 -113 188 -111.4375 190.8125 C-110.88326741 194.85048027 -111.80397165 196.62752789 -114 200 C-120.34875558 203.17437779 -130.00612934 198.65915191 -136.25976562 196.6015625 C-136.92532471 196.37887695 -137.59088379 196.15619141 -138.27661133 195.92675781 C-140.32006808 195.24748427 -142.37112609 194.59603201 -144.42382812 193.9453125 C-145.73752831 193.5120783 -147.05070021 193.07723818 -148.36328125 192.640625 C-149.54188721 192.25422852 -150.72049316 191.86783203 -151.93481445 191.46972656 C-155.54602478 189.73818645 -157.1003797 188.53669889 -159 185 C-158.85496331 179.44969342 -157.41508938 174.52328324 -155.6015625 169.2890625 C-155.36593597 168.59485199 -155.13030945 167.90064148 -154.88754272 167.18539429 C-154.39216396 165.73374368 -153.89282067 164.28344032 -153.38964844 162.83447266 C-152.62122097 160.61408039 -151.87255363 158.3876508 -151.125 156.16015625 C-150.63919438 154.74438843 -150.15225552 153.32900885 -149.6640625 151.9140625 C-149.33107651 150.9172496 -149.33107651 150.9172496 -148.99136353 149.90029907 C-147.74494101 146.36590226 -147.22156487 145.14770991 -144 143 C-137.95281307 142.4600726 -137.95281307 142.4600726 -135.125 144.0625 C-133.38383651 147.06117045 -132.7737744 149.5828028 -133 153 C-133.87908259 156.21234855 -134.9339248 159.3028409 -136.08984375 162.42578125 C-137.11111464 164.85920475 -137.11111464 164.85920475 -137 167 C-120.43970575 158.24531813 -105.20178726 148.26313059 -91 136 C-90.20851563 135.319375 -89.41703125 134.63875 -88.6015625 133.9375 C-77.07956909 123.79516275 -66.42068184 113.06140069 -57.27490234 100.71923828 C-56.0372902 99.05028678 -54.77946181 97.39822447 -53.51953125 95.74609375 C-34.50886078 70.39979094 -21.95494864 41.14766024 -14.39624023 10.54321289 C-14.12626221 9.47707764 -13.85628418 8.41094238 -13.578125 7.3125 C-13.34512695 6.35988281 -13.11212891 5.40726562 -12.87207031 4.42578125 C-11.94237967 1.83972128 -11.15640385 0.669987 -9 -1 C-5.19825711 -2.26724763 -3.6488868 -1.4750819 0 0 Z " fill="#F0771E" transform="translate(501,300)"/>
<path d="M0 0 C0.66555908 0.22268555 1.33111816 0.44537109 2.0168457 0.67480469 C4.06030245 1.35407823 6.11136047 2.00553049 8.1640625 2.65625 C9.47776268 3.0894842 10.79093459 3.52432432 12.10351562 3.9609375 C13.28212158 4.34733398 14.46072754 4.73373047 15.67504883 5.13183594 C19.28625915 6.86337605 20.84061407 8.06486361 22.74023438 11.6015625 C22.59519768 17.15186908 21.15532375 22.07827926 19.34179688 27.3125 C18.98835709 28.35381577 18.98835709 28.35381577 18.6277771 29.41616821 C18.13239834 30.86781882 17.63305505 32.31812218 17.12988281 33.76708984 C16.36145534 35.98748211 15.61278801 38.2139117 14.86523438 40.44140625 C14.37942875 41.85717407 13.8924899 43.27255365 13.40429688 44.6875 C13.18230621 45.35204193 12.96031555 46.01658386 12.7315979 46.70126343 C11.48517538 50.23566024 10.96179924 51.45385259 7.74023438 53.6015625 C1.69304744 54.1414899 1.69304744 54.1414899 -1.13476562 52.5390625 C-2.87592911 49.54039205 -3.48599122 47.0187597 -3.25976562 43.6015625 C-2.38068303 40.38921395 -1.32584083 37.2987216 -0.16992188 34.17578125 C0.85134901 31.74235775 0.85134901 31.74235775 0.74023438 29.6015625 C-15.82005987 38.35624437 -31.05797837 48.33843191 -45.25976562 60.6015625 C-46.05125 61.2821875 -46.84273438 61.9628125 -47.65820312 62.6640625 C-59.76647552 73.32247703 -70.66380809 84.63969467 -80.25976562 97.6015625 C-80.67677734 98.15247559 -81.09378906 98.70338867 -81.5234375 99.27099609 C-101.09324116 125.13763596 -114.11527573 154.69050723 -121.86376953 186.05883789 C-122.26861572 187.65779907 -122.26861572 187.65779907 -122.68164062 189.2890625 C-122.91463867 190.24167969 -123.14763672 191.19429687 -123.38769531 192.17578125 C-124.3127808 194.74903138 -125.13087246 195.92205762 -127.25976562 197.6015625 C-129.63476562 198.4765625 -129.63476562 198.4765625 -132.25976562 198.6015625 C-134.54294942 197.4599706 -136.44989245 196.41143567 -138.25976562 194.6015625 C-139.05885376 187.04752907 -137.49014252 180.24520124 -135.38476562 173.0390625 C-135.0730542 171.9577002 -134.76134277 170.87633789 -134.44018555 169.76220703 C-122.29268199 128.94777587 -100.53269199 93.3111969 -71.25976562 62.6015625 C-70.50179687 61.80234375 -69.74382812 61.003125 -68.96289062 60.1796875 C-63.43465651 54.49462405 -57.46602753 49.52600822 -51.25976562 44.6015625 C-50.21056851 43.73952125 -49.16242127 42.87620086 -48.11523438 42.01171875 C-35.53632548 31.73931487 -21.71134128 23.00596531 -7.25976562 15.6015625 C-7.91203125 15.34761719 -8.56429687 15.09367187 -9.23632812 14.83203125 C-11.91935119 13.77544252 -14.58938462 12.68964312 -17.25976562 11.6015625 C-18.41476563 11.1478125 -19.56976563 10.6940625 -20.75976562 10.2265625 C-23.25976562 8.6015625 -23.25976562 8.6015625 -24.82226562 5.7890625 C-25.37649821 1.75108223 -24.45579397 -0.02596539 -22.25976562 -3.3984375 C-15.91101005 -6.57281529 -6.25363629 -2.05758941 0 0 Z " fill="#F0791E" transform="translate(147.259765625,15.3984375)"/>
<path d="M0 0 C1.3018371 0.43244208 2.60078648 0.87365774 3.89697266 1.32275391 C4.59118317 1.55838043 5.28539368 1.79400696 6.00064087 2.03677368 C7.45229147 2.53215244 8.90259483 3.03149573 10.3515625 3.53466797 C12.57195477 4.30309544 14.79838435 5.05176278 17.02587891 5.79931641 C18.44164672 6.28512203 19.8570263 6.77206088 21.27197266 7.26025391 C22.26878555 7.5932399 22.26878555 7.5932399 23.28573608 7.93295288 C26.8201329 9.1793754 28.03832524 9.70275154 30.18603516 12.92431641 C30.72596256 18.97150334 30.72596256 18.97150334 29.12353516 21.79931641 C26.12486471 23.54047989 23.60323235 24.150542 20.18603516 23.92431641 C16.97368661 23.04523381 13.88319426 21.99039161 10.76025391 20.83447266 C8.32683041 19.81320177 8.32683041 19.81320177 6.18603516 19.92431641 C14.94071703 36.48461065 24.92290457 51.72252915 37.18603516 65.92431641 C37.86666016 66.71580078 38.54728516 67.50728516 39.24853516 68.32275391 C49.3908724 79.84474732 60.12463447 90.50363457 72.46679688 99.64941406 C74.13574837 100.88702621 75.78781069 102.1448546 77.43994141 103.40478516 C102.78624421 122.41545563 132.03837492 134.96936776 162.64282227 142.52807617 C163.70895752 142.7980542 164.77509277 143.06803223 165.87353516 143.34619141 C166.82615234 143.57918945 167.77876953 143.8121875 168.76025391 144.05224609 C171.33350403 144.97733159 172.50653028 145.79542324 174.18603516 147.92431641 C175.06103516 150.29931641 175.06103516 150.29931641 175.18603516 152.92431641 C174.04444326 155.2075002 172.99590833 157.11444323 171.18603516 158.92431641 C164.17159828 159.31870242 158.18720779 158.25960348 151.43603516 156.42431641 C150.43378906 156.15514404 149.43154297 155.88597168 148.39892578 155.60864258 C98.96882002 141.90959738 53.16943637 112.11125234 21.18603516 71.92431641 C20.32251401 70.87396309 19.45790081 69.82450677 18.59228516 68.77587891 C8.32240769 56.1971395 -0.41032036 42.37441199 -7.81396484 27.92431641 C-8.06791016 28.57658203 -8.32185547 29.22884766 -8.58349609 29.90087891 C-13.64608163 42.75643319 -13.64608163 42.75643319 -15.81396484 44.92431641 C-22.79406435 45.49645571 -22.79406435 45.49645571 -26.37646484 43.48681641 C-29.03757799 38.74309297 -27.22906095 33.45312684 -25.86889648 28.44360352 C-24.8685424 25.16146044 -23.82927653 21.90115788 -22.74072266 18.64770508 C-22.06144911 16.60424833 -21.40999685 14.55319031 -20.75927734 12.50048828 C-20.32604314 11.1867881 -19.89120302 9.87361619 -19.45458984 8.56103516 C-19.06819336 7.3824292 -18.68179687 6.20382324 -18.28369141 4.98950195 C-14.06102879 -3.81706435 -8.07108072 -2.27635268 0 0 Z " fill="#F7B416" transform="translate(38.81396484375,344.07568359375)"/>
<path d="M0 0 C5.52257475 0.06974049 10.55113867 1.27551357 15.859375 2.71875 C16.86307129 2.98864746 17.86676758 3.25854492 18.90087891 3.53662109 C50.13291044 12.19991445 79.73389261 27.05133604 105.109375 47.21875 C106.00527344 47.92257813 106.90117187 48.62640625 107.82421875 49.3515625 C115.24488172 55.29235151 122.2152109 61.68275469 129.109375 68.21875 C129.86347656 68.9303125 130.61757813 69.641875 131.39453125 70.375 C136.78383744 75.60359129 141.43843092 81.3497391 146.109375 87.21875 C146.97289614 88.26910332 147.83750935 89.31855963 148.703125 90.3671875 C158.97300246 102.94592691 167.70573052 116.76865442 175.109375 131.21875 C175.36332031 130.56648437 175.61726562 129.91421875 175.87890625 129.2421875 C180.94149179 116.38663321 180.94149179 116.38663321 183.109375 114.21875 C190.0894745 113.6466107 190.0894745 113.6466107 193.671875 115.65625 C196.33298815 120.39997343 194.52447111 125.68993957 193.16430664 130.69946289 C192.16395256 133.98160596 191.12468669 137.24190853 190.03613281 140.49536133 C189.35685927 142.53881808 188.70540701 144.58987609 188.0546875 146.64257812 C187.6214533 147.95627831 187.18661318 149.26945021 186.75 150.58203125 C186.36360352 151.76063721 185.97720703 152.93924316 185.57910156 154.15356445 C183.84756145 157.76477478 182.64607389 159.3191297 179.109375 161.21875 C173.55906842 161.07371331 168.63265824 159.63383938 163.3984375 157.8203125 C162.35712173 157.46687271 162.35712173 157.46687271 161.29476929 157.10629272 C159.84311868 156.61091396 158.39281532 156.11157067 156.94384766 155.60839844 C154.72345539 154.83997097 152.4970258 154.09130363 150.26953125 153.34375 C148.85376343 152.85794438 147.43838385 152.37100552 146.0234375 151.8828125 C145.35889557 151.66082184 144.69435364 151.43883118 144.00967407 151.21011353 C140.47527726 149.96369101 139.25708491 149.44031487 137.109375 146.21875 C136.5694476 140.17156307 136.5694476 140.17156307 138.171875 137.34375 C141.17054545 135.60258651 143.6921778 134.9925244 147.109375 135.21875 C150.32172355 136.09783259 153.4122159 137.1526748 156.53515625 138.30859375 C158.96857975 139.32986464 158.96857975 139.32986464 161.109375 139.21875 C152.35469313 122.65845575 142.37250559 107.42053726 130.109375 93.21875 C129.42875 92.42726563 128.748125 91.63578125 128.046875 90.8203125 C117.38846047 78.71204011 106.07124283 67.81470754 93.109375 58.21875 C92.55846191 57.80173828 92.00754883 57.38472656 91.43994141 56.95507812 C65.57330154 37.38527446 36.02043027 24.36323989 4.65209961 16.61474609 C3.58612549 16.34484863 2.52015137 16.07495117 1.421875 15.796875 C0.46925781 15.56387695 -0.48335938 15.33087891 -1.46484375 15.09082031 C-4.03809388 14.16573482 -5.21112012 13.34764316 -6.890625 11.21875 C-7.765625 8.84375 -7.765625 8.84375 -7.890625 6.21875 C-4.91955062 0.27660124 -4.91955062 0.27660124 0 0 Z " fill="#EA3C26" transform="translate(305.890625,8.78125)"/>
</svg>
