<?xml version="1.0" encoding="UTF-8"?>
<svg version="1.1" xmlns="http://www.w3.org/2000/svg" width="512" height="512">
<path d="M0 0 C1.01790619 0.00215515 2.03581238 0.0043103 3.08456421 0.00653076 C17.69363523 0.05620146 32.02575853 0.30709809 46.375 3.3125 C47.34985352 3.51117676 48.32470703 3.70985352 49.32910156 3.91455078 C97.7109774 14.03517194 141.69928269 35.9516877 177.375 70.3125 C178.3640332 71.26068604 178.3640332 71.26068604 179.37304688 72.22802734 C188.86130305 81.37247479 197.6012044 90.66984009 205.375 101.3125 C206.23306152 102.46355017 207.09113451 103.61459177 207.94921875 104.765625 C213.98736829 112.95680614 219.34595521 121.47054105 224.375 130.3125 C224.73948242 130.94430176 225.10396484 131.57610352 225.47949219 132.22705078 C247.08534998 169.97532572 256.85198095 212.74189997 256.6875 255.9375 C256.68534485 256.95540619 256.6831897 257.97331238 256.68096924 259.02206421 C256.63129854 273.63113523 256.38040191 287.96325853 253.375 302.3125 C253.07698486 303.77478027 253.07698486 303.77478027 252.77294922 305.26660156 C242.65232806 353.6484774 220.7358123 397.63678269 186.375 433.3125 C185.74287598 433.97185547 185.11075195 434.63121094 184.45947266 435.31054688 C175.31502521 444.79880305 166.01765991 453.5387044 155.375 461.3125 C154.22394983 462.17056152 153.07290823 463.02863451 151.921875 463.88671875 C143.73224019 469.92427396 135.22961724 475.30707302 126.375 480.3125 C125.66778809 480.7146875 124.96057617 481.116875 124.23193359 481.53125 C101.09654164 494.5566741 75.92537591 503.30551461 49.9375 508.625 C49.21860596 508.77235596 48.49971191 508.91971191 47.7590332 509.0715332 C33.08339502 511.86090125 18.55831162 512.66142619 3.64770508 512.62817383 C0.70811513 512.6250221 -2.2304558 512.64854926 -5.16992188 512.67382812 C-18.54306192 512.71848737 -31.43916711 511.51301542 -44.625 509.3125 C-46.33055054 509.03031616 -46.33055054 509.03031616 -48.07055664 508.74243164 C-91.33802759 500.97044532 -132.38793216 480.98345309 -165.625 452.3125 C-166.37007813 451.67828125 -167.11515625 451.0440625 -167.8828125 450.390625 C-181.38779833 438.57948485 -194.05918743 425.82889772 -204.625 411.3125 C-205.48149066 410.16255169 -206.33826433 409.01281411 -207.1953125 407.86328125 C-213.23534209 399.67315742 -218.61867614 391.16870382 -223.625 382.3125 C-224.0271875 381.60528809 -224.429375 380.89807617 -224.84375 380.16943359 C-237.8691741 357.03404164 -246.61801461 331.86287591 -251.9375 305.875 C-252.08485596 305.15610596 -252.23221191 304.43721191 -252.3840332 303.6965332 C-255.35789088 288.05024391 -255.99800362 272.57681954 -255.9375 256.6875 C-255.93534485 255.66959381 -255.9331897 254.65168762 -255.93096924 253.60293579 C-255.88129854 238.99386477 -255.63040191 224.66174147 -252.625 210.3125 C-252.42632324 209.33764648 -252.22764648 208.36279297 -252.02294922 207.35839844 C-241.90232806 158.9765226 -219.9858123 114.98821731 -185.625 79.3125 C-184.99287598 78.65314453 -184.36075195 77.99378906 -183.70947266 77.31445312 C-174.56502521 67.82619695 -165.26765991 59.0862956 -154.625 51.3125 C-153.47394983 50.45443848 -152.32290823 49.59636549 -151.171875 48.73828125 C-142.98224019 42.70072604 -134.47961724 37.31792698 -125.625 32.3125 C-124.91778809 31.9103125 -124.21057617 31.508125 -123.48193359 31.09375 C-100.34654164 18.0683259 -75.17537591 9.31948539 -49.1875 4 C-48.46860596 3.85264404 -47.74971191 3.70528809 -47.0090332 3.5534668 C-31.36274391 0.57960912 -15.88931954 -0.06050362 0 0 Z " fill="#124377" transform="translate(255.625,-0.3125)"/>
<path d="M0 0 C66.42804872 0 128.94720928 23.71829785 177 70 C177.9890332 70.94818604 177.9890332 70.94818604 178.99804688 71.91552734 C188.48630305 81.05997479 197.2262044 90.35734009 205 101 C205.85806152 102.15105017 206.71613451 103.30209177 207.57421875 104.453125 C213.61236829 112.64430614 218.97095521 121.15804105 224 130 C224.36448242 130.63180176 224.72896484 131.26360352 225.10449219 131.91455078 C246.71034998 169.66282572 256.47698095 212.42939997 256.3125 255.625 C256.31034485 256.64290619 256.3081897 257.66081238 256.30596924 258.70956421 C256.25629854 273.31863523 256.00540191 287.65075853 253 302 C252.70198486 303.46228027 252.70198486 303.46228027 252.39794922 304.95410156 C242.27732806 353.3359774 220.3608123 397.32428269 186 433 C185.36787598 433.65935547 184.73575195 434.31871094 184.08447266 434.99804688 C174.94002521 444.48630305 165.64265991 453.2262044 155 461 C153.84894983 461.85806152 152.69790823 462.71613451 151.546875 463.57421875 C143.35724019 469.61177396 134.85461724 474.99457302 126 480 C125.29278809 480.4021875 124.58557617 480.804375 123.85693359 481.21875 C97.9229405 495.81981055 69.33516936 505.18199681 40 510 C39.29391602 510.11714355 38.58783203 510.23428711 37.86035156 510.35498047 C25.12404774 512.37561519 13.0611289 512 0 512 C0 434.45 0 356.9 0 277 C10.58243735 277 18.86738527 279.08320415 27.03125 286.01953125 C32.78911156 291.8116658 35.82818598 298.21896849 38 306 C38.495 307.485 38.495 307.485 39 309 C39.11917311 311.97877432 39.18543302 314.93825398 39.2109375 317.91796875 C39.23905739 319.74935711 39.26772203 321.58073717 39.296875 323.41210938 C39.33771202 326.27920838 39.37461429 329.14616106 39.40136719 332.01342773 C38.86467332 355.67406859 38.86467332 355.67406859 49 376 C50.34983748 376.12185143 51.70574701 376.17766831 53.06079102 376.20532227 C53.92160782 376.22526749 54.78242462 376.24521271 55.66932678 376.26576233 C56.60473801 376.28247482 57.54014923 376.29918732 58.50390625 376.31640625 C59.93342873 376.3475779 59.93342873 376.3475779 61.39183044 376.37937927 C64.4486441 376.44498177 67.50554656 376.50380918 70.5625 376.5625 C72.62956663 376.60567506 74.69662414 376.64928901 76.76367188 376.69335938 C81.84235595 376.80067401 86.9211297 376.90191091 92 377 C90.69322678 373.60015703 89.35425855 371.00109004 87.125 368.125 C78.31265756 354.92345491 79.45937199 338.85305291 79.50927734 323.67919922 C79.52600917 304.43425234 77.39729614 286.95988391 63.59375 272.328125 C57.07816406 266.47979786 49.26902325 262.70333452 41 260 C44.06894897 257.57254155 47.26255228 255.69734051 50.6875 253.8125 C63.25347665 246.48999049 72.49190577 236.05749813 77 222 C80.87447232 201.69776505 78.32445737 181.35488908 67 164 C50.79895742 142.75746604 24.96048317 138.84007433 0 135 C0 90.45 0 45.9 0 0 Z " fill="#143D66" transform="translate(256,0)"/>
<path d="M0 0 C112.13635551 0 112.13635551 0 127.9375 6.25 C128.72543945 6.55156006 129.51337891 6.85312012 130.32519531 7.16381836 C136.73675371 9.70694678 142.47888119 12.8421204 148 17 C148.95712891 17.68642578 148.95712891 17.68642578 149.93359375 18.38671875 C161.67005845 27.50927149 169.0247843 42.48515733 171 57 C171.25676451 60.85984763 171.28075293 64.69531919 171.25 68.5625 C171.25773438 69.53896484 171.26546875 70.51542969 171.2734375 71.52148438 C171.23339209 86.48845496 166.11915814 99.76407788 155.671875 110.6796875 C151.47648403 114.32305334 146.89053276 117.23193982 142.13671875 120.08984375 C139.62728955 121.61800176 137.30406887 123.1851902 135 125 C136.14275391 125.41958984 136.14275391 125.41958984 137.30859375 125.84765625 C151.52568397 131.36765008 160.68151352 139.87900518 167.640625 153.38671875 C172.70872102 166.85795099 172.44434485 180.01645976 172.43579102 194.2109375 C172.40134699 215.91851055 172.40134699 215.91851055 181.73046875 235.0703125 C183.23532521 237.35769433 183.52723177 239.32582752 184 242 C177.96780145 242.14849192 171.93666987 242.25728505 165.90307617 242.32958984 C163.85145534 242.35973452 161.7999631 242.40065836 159.7487793 242.45263672 C156.79704059 242.52555446 153.84700726 242.55947901 150.89453125 242.5859375 C149.97976517 242.61690521 149.06499908 242.64787292 148.12251282 242.67977905 C141.91081738 242.68305041 141.91081738 242.68305041 139.33554077 240.75177002 C128.38218239 228.0654375 130.64704282 207.62669267 130.54370117 192.03955078 C130.52188516 189.273472 130.4824696 186.5080382 130.44140625 183.7421875 C130.44123253 182.49802567 130.44123253 182.49802567 130.4410553 181.22872925 C130.25995332 170.3482534 126.66781885 159.88148662 119.03125 151.95703125 C109.44151798 143.80923357 98.3263394 142.40216606 86.140625 142.390625 C85.01253418 142.37499512 83.88444336 142.35936523 82.72216797 142.34326172 C78.56498815 142.29122003 74.40744471 142.27249252 70.25 142.25 C60.9275 142.1675 51.605 142.085 42 142 C42 175 42 208 42 242 C28.14 242 14.28 242 0 242 C0 162.14 0 82.28 0 0 Z " fill="#FCFCFD" transform="translate(164,135)"/>
<path d="M0 0 C8.971875 -0.0825 17.94375 -0.165 27.1875 -0.25 C29.9927417 -0.28641602 32.7979834 -0.32283203 35.68823242 -0.36035156 C37.95230345 -0.37205178 40.21638301 -0.38224043 42.48046875 -0.390625 C44.19441833 -0.4213208 44.19441833 -0.4213208 45.94299316 -0.45263672 C57.61288436 -0.45760527 69.03092132 2.15659516 78 10 C80.38706832 12.4834074 82.23592953 15.0455841 84 18 C84.41378906 18.65871094 84.82757813 19.31742188 85.25390625 19.99609375 C90.07523583 29.42036516 89.55924377 42.75663458 87.046875 52.81640625 C85.89442009 55.73036662 84.62967296 58.32751692 83 61 C82.62746094 61.61875 82.25492187 62.2375 81.87109375 62.875 C76.47030159 70.40223646 65.88056705 73.91724951 57.12133789 75.5300293 C51.68002113 76.28275593 46.2042789 76.1229539 40.72265625 76.09765625 C39.68782104 76.09664917 38.65298584 76.09564209 37.58679199 76.09460449 C33.74534995 76.08939833 29.90392379 76.07543717 26.0625 76.0625 C13.1615625 76.0315625 13.1615625 76.0315625 0 76 C0 50.92 0 25.84 0 0 Z " fill="#134478" transform="translate(206,168)"/>
<path d="M0 0 C11.15964144 1.11596414 20.80755035 2.89737984 29 11 C35.82040269 19.3549933 38.57460332 27.58366238 38.5 38.25 C38.49572998 39.17369385 38.49145996 40.0973877 38.48706055 41.04907227 C38.30182283 48.51029027 36.9280154 54.55848998 33 61 C32.62746094 61.61875 32.25492187 62.2375 31.87109375 62.875 C26.95467186 69.72715594 17.8409553 72.95920341 10 75 C6.7 75 3.4 75 0 75 C0 50.25 0 25.5 0 0 Z " fill="#153E66" transform="translate(256,168)"/>
</svg>
